<svg width="91" height="138" viewBox="0 0 91 138" fill="none" xmlns="http://www.w3.org/2000/svg">
<path d="M76.0095 69.2997C75.0937 67.6612 68.274 63.2658 65.3113 61.8922C62.5856 60.6364 62.467 60.5187 62.7148 59.4198C63.3918 57.5723 64.2313 55.7776 65.2251 54.053C66.4748 51.7278 67.5199 49.7067 67.5199 49.5595C67.5199 49.4123 68.4464 47.5384 69.5669 45.4093C71.8397 40.8699 73.5663 36.1198 74.7166 31.2419C74.9733 28.5425 74.4223 25.8301 73.1222 23.3929C72.2495 21.7937 71.7862 21.7937 70.0302 23.2458C68.4464 24.5409 67.1428 25.0707 67.7354 24.2269C67.8838 23.8058 67.8838 23.3529 67.7354 22.9318C67.4768 22.0194 67.1428 21.9507 63.4259 21.4111C61.9176 21.1756 61.756 21.0677 61.8745 20.2632C61.9856 19.6804 61.8834 19.0806 61.5836 18.556C61.1634 17.8692 61.2065 17.5749 61.9176 16.996C62.995 16.113 62.7149 15.0926 60.3339 10.9032C59.6623 9.83384 59.0998 8.71067 58.6532 7.5478C58.6532 7.16516 63.8461 9.45117 66.6041 11.0112C67.8539 11.7372 68.7588 10.4421 68.4356 8.35232C68.1124 6.26252 68.6942 6.25271 69.9009 8.04817C71.3661 10.1772 71.8293 10.3636 73.2837 9.41193C73.9625 8.96061 74.5443 8.69571 74.5443 8.80363C74.5443 8.91156 75.0076 8.80363 75.5462 8.65646C77.0114 8.15609 77.173 8.57798 76.128 10.0987L75.2553 11.433C76.1262 12.1749 77.1625 12.7372 78.2935 13.0813C78.6706 13.1991 81.5794 13.9153 80.4482 14.553C79.5325 15.0926 80.028 16.839 81.5256 18.1341C82.3288 18.7051 82.8547 19.5397 82.9908 20.4594C83.2125 21.5956 83.65 22.6879 84.2836 23.6873C84.7998 24.3939 85.1653 25.1827 85.361 26.0125C84.5349 25.8386 83.7454 25.5437 83.0231 25.1393C80.8684 24.1582 80.8037 24.1582 80.2219 24.8352C79.8409 25.3665 79.6352 25.9862 79.6294 26.6208C79.6294 27.8767 79.22 27.9552 78.175 26.925C77.13 25.8948 76.9145 26.2382 76.4943 27.9552C76.3327 28.7597 76.3758 29.211 76.6667 29.211C76.9576 29.211 77.4639 29.8585 77.841 30.6238C78.9184 32.7921 79.9957 32.5861 81.0731 29.8193C81.3701 28.9577 81.8255 28.1483 82.4198 27.4254C83.5546 27.6906 84.6427 28.1001 85.6519 28.6419C87.8712 29.6231 88.7008 29.8585 89.1209 29.5544C89.8751 28.9461 89.7889 27.7982 88.83 25.8261L88.0005 24.1876L89.2502 23.1182C89.8471 22.6941 90.2839 22.1111 90.5 21.4503C90.5 21.1364 89.0024 19.8805 87.1601 18.7032C85.9486 18.0259 84.8278 17.2225 83.8204 16.3092C84.3409 15.6823 84.9792 15.1442 85.7057 14.7198C88.7547 12.7576 88.2591 12.2866 81.9458 11.178C80.5667 10.913 79.3924 10.6874 79.3062 10.6481C77.9595 10.03 83.5187 3.98632 81.1485 3.98632C79.6291 4.46023 78.1553 5.04763 76.7421 5.74253C72.2279 7.70477 72.8959 7.9893 69.9655 3.2701C69.3498 2.16463 68.6173 1.11641 67.7784 0.140314C66.7011 -0.467983 66.1839 0.90559 66.1408 4.18254C66.24 5.28099 66.127 6.38678 65.8068 7.44968C64.643 6.99752 63.513 6.47641 62.424 5.8897C56.9833 3.07387 55.7767 2.58331 55.1518 2.80897C54.0744 3.19161 54.5161 4.97725 56.8648 9.32363C57.7162 10.8338 58.4822 12.3828 59.1596 13.9643C59.1596 14.504 56.6924 14.4941 56.2938 14.6021C54.4623 15.073 56.0999 16.6134 56.9079 17.2413C57.7159 17.8692 58.427 18.5266 58.2438 18.6443C57.1371 19.0003 55.9864 19.231 54.8178 19.3311C51.5857 19.753 51.0901 20.1258 51.9736 21.4209C52.2645 21.8428 56.5308 22.6767 60.8726 23.1378C61.7069 23.2408 62.5222 23.4454 63.2966 23.7461L64.2232 24.2073L63.1458 25.8752C60.9911 29.2306 62.1762 30.4472 65.3005 28.014C67.2613 26.4148 69.0605 26.0518 68.8881 27.2095C68.6834 28.848 65.2574 36.9521 63.6198 39.7777C62.5121 41.6879 61.523 43.6533 60.6571 45.6644C59.3212 48.9021 57.425 51.9044 56.0567 53.0915C55.5281 53.513 55.1524 54.0706 54.9794 54.6908C54.8831 55.2386 54.6221 55.7514 54.2252 56.1723L53.4711 57.0062L50.5945 56.2508C46.1989 55.0636 42.9022 54.8379 41.0168 55.564C37.4292 56.9375 38.4204 61.5096 35.0698 66.3563C34.1325 67.7103 30.157 68.4265 28.6056 68.8876C25.6929 69.6123 22.8413 70.5272 20.0729 71.625C14.7441 73.9968 10.1516 77.545 6.71365 81.9464C-3.90912 95.6821 0.0340222 112.361 11.4002 124.439C16.8732 130.267 20.2668 132.17 30.7172 135.369C37.0681 137.415 43.8049 138.283 50.5299 137.919C57.8883 137.723 61.6052 136.811 65.7099 134.299C78.8968 126.087 89.7566 104.13 80.6313 90.6097C78.8537 87.9803 76.6344 85.6256 74.6089 83.1532C73.5484 82.0109 72.8846 80.6073 72.702 79.1207M11.9389 104.63C12.4883 103.217 13.8242 102.668 14.7077 103.521C15.5911 104.375 15.074 108.015 13.738 109.153C12.7361 109.997 12.7361 109.997 12.1112 109.271C11.4864 108.545 11.3355 106.239 11.9604 104.61L11.9389 104.63ZM15.074 89.4324C17.0398 86.134 19.9372 83.3735 23.4666 81.4362C26.4293 80.1509 30.9004 79.729 31.3206 80.72C31.7407 81.7109 30.6095 82.6234 27.8515 83.8007C23.9191 85.5177 21.5381 87.7252 19.2326 91.7576C17.9721 93.9651 16.6362 95.378 15.882 95.378C15.3487 95.2326 14.8709 94.9539 14.503 94.5734C13.4687 93.6021 13.6411 92.3463 15.0955 89.4127L15.074 89.4324ZM51.284 126.862C53.9465 126.007 56.5418 124.988 59.0518 123.811C60.8941 123.016 63.9861 120.083 66.4964 116.806C68.7157 113.951 70.1809 108.24 70.1809 102.344C70.1809 98.4194 70.2995 97.6934 70.849 97.7719C71.579 98.3695 72.1249 99.1305 72.4326 99.9794C73.3161 101.942 73.3915 102.452 73.1868 107.25C73.0144 111.9 72.8528 112.773 71.7216 115.442C69.2545 121.26 66.4533 124.007 60.3554 126.587C55.6258 128.609 53.2017 129.295 50.9931 129.295C49.3125 129.295 49.1078 129.217 49.1078 128.422C49.1078 127.627 49.5495 127.412 51.3056 126.843L51.284 126.862ZM58.3085 56.084C58.5495 56.0322 58.7636 55.9063 58.9147 55.7276C59.0658 55.5489 59.1446 55.3283 59.138 55.1028C59.138 54.6515 59.3104 54.3081 59.5582 54.3081C60.2261 54.3081 60.0645 55.721 59.3104 56.3685C58.5562 57.016 57.4681 57.2024 57.4681 56.6334C57.4896 56.4077 57.8667 56.1821 58.33 56.0643L58.3085 56.084ZM59.138 57.4183C59.7959 56.9746 60.3522 56.418 60.7756 55.7798C61.853 54.1413 62.1869 55.0244 61.185 56.81C60.183 58.5956 59.3535 59.4002 58.7609 59.096C58.1684 58.7919 58.2438 57.8892 59.1596 57.3987L59.138 57.4183ZM63.4474 46.3807C63.8999 45.9588 64.1154 46.155 64.6972 47.4795C65.279 48.804 65.3652 49.1572 64.7834 49.6576C64.2016 50.158 64.0292 50.1874 63.2751 49.5399C63.0508 49.3217 62.8781 49.0639 62.768 48.7824C62.6578 48.5009 62.6124 48.2017 62.6346 47.9035C62.6568 47.6054 62.7462 47.3145 62.8972 47.0492C63.0481 46.7838 63.2574 46.5496 63.5121 46.361L63.4474 46.3807ZM64.4063 43.9082C64.611 43.7905 65.1173 44.1731 65.4837 44.7029C66.2378 45.5761 66.2378 45.6841 65.5699 45.429C65.2264 45.2945 64.8636 45.2053 64.4925 45.1641C64.0939 45.1346 64.0508 44.1535 64.4709 43.8886L64.4063 43.9082ZM66.2055 40.4449C66.6687 39.2577 67.4552 39.189 68.4572 40.1701C69.4591 41.1513 69.0497 42.4954 68.0478 42.4954C67.369 42.4954 65.7853 41.8086 65.7853 41.5143C65.9091 41.1383 66.0715 40.7736 66.2702 40.4252L66.2055 40.4449ZM68.7589 35.8728C69.5884 35.2645 69.7177 35.2253 70.3426 35.7943C71.2152 36.6381 70.5042 37.6977 68.9636 37.8547C67.4229 38.0117 67.5199 36.8834 68.8235 35.8532L68.7589 35.8728ZM71.3553 28.122L71.8616 27.0623L72.1957 28.2004C72.6589 29.574 72.4003 30.2902 71.5276 30.2902C70.655 30.2902 70.6981 29.6133 71.3553 28.122Z" fill="#3AB0FF"/>
</svg>
