<svg width="110" height="57" viewBox="0 0 110 57" fill="none" xmlns="http://www.w3.org/2000/svg">
<g clip-path="url(#clip0_39_106)">
<path d="M0.357546 40.4886C0.81037 41.7957 1.60811 42.9554 2.66597 43.8444C3.72383 44.7333 5.00226 45.3184 6.36535 45.5373C5.32318 48.0838 4.7442 51.0878 6.02477 53.5319C7.49266 56.3857 11.239 57.5702 14.3213 56.7441C17.4035 55.918 19.8795 53.4568 21.4734 50.6611C22.2635 49.2581 22.88 47.7391 23.9017 46.4999C25.2232 44.8956 27.1066 43.8817 28.9389 42.9123L49.6529 31.9342C50.099 31.6952 50.6269 31.2515 50.3953 30.7872C50.2921 30.6272 50.144 30.5013 49.9696 30.4254C48.9422 29.8518 47.8731 29.3566 46.7716 28.9439C47.8087 28.3502 48.6404 27.4535 49.1556 26.3735L43.9482 25.3494C43.7127 25.3307 43.4922 25.2262 43.3283 25.0558C43.2611 24.9249 43.226 24.7798 43.226 24.6325C43.226 24.4853 43.2611 24.3402 43.3283 24.2093C43.7105 23.1217 44.2762 22.1079 45.0006 21.2121C45.1361 21.0799 45.2256 20.9076 45.256 20.7206C45.2866 20.1266 44.3637 20.1573 43.8324 20.4168L22.6518 30.7702C21.0034 31.5792 19.2801 32.4018 17.4444 32.3882C14.9854 32.3882 12.7989 30.8555 10.3944 30.34C9.13333 30.067 7.82905 30.0629 6.56633 30.3282C5.30361 30.5934 4.1107 31.122 3.06514 31.8796C2.15788 32.6271 1.41757 33.5576 0.892254 34.6104C0.314094 35.7132 0.00810607 36.9388 -6.08458e-05 38.1845C-0.00518062 38.9056 0.0969801 39.6235 0.303054 40.3145C0.320083 40.3726 0.340518 40.4306 0.357546 40.4886ZM0.977399 39.1437C0.976559 37.8683 1.17773 36.6009 1.57341 35.3887C1.99913 33.9107 2.98 33.0538 4.32528 32.2312C4.87826 31.8908 5.47224 31.6224 6.09289 31.4324C7.52409 30.9828 9.05434 30.9567 10.5 31.3573C11.7045 31.7095 12.8075 32.3453 13.7169 33.2117C14.6263 34.078 15.3158 35.1499 15.7278 36.3377C15.7851 36.6007 15.9135 36.8429 16.0991 37.0375C16.1467 37.0815 16.2032 37.1148 16.2647 37.1352C16.3262 37.1556 16.3914 37.1626 16.4558 37.1559C16.5202 37.1491 16.5825 37.1286 16.6384 37.0959C16.6944 37.0631 16.7427 37.0188 16.7802 36.9658C16.8212 36.837 16.8212 36.6986 16.7802 36.5698C16.6047 35.7158 16.3458 34.8811 16.0071 34.0779C15.8845 33.798 15.7721 33.4328 16.0071 33.2279C16.1067 33.1611 16.2222 33.1219 16.3418 33.1141C16.4614 33.1063 16.5809 33.1302 16.6883 33.1836C18.4099 33.7069 19.896 34.8149 20.891 36.3172C21.078 36.0784 21.1938 35.7914 21.2251 35.4894C21.2565 35.1875 21.202 34.8828 21.0681 34.6104C20.7896 34.0729 20.4117 33.5933 19.9544 33.1972C27.6515 29.3512 35.3838 25.5735 43.1512 21.8641C42.8106 22.9326 42.1295 24.2775 42.0852 25.3903C42.0205 26.6841 46.3356 26.6534 47.3097 26.7865C46.6199 27.8571 45.6275 28.6973 44.459 29.1999L48.6277 31.1798C40.5401 35.754 32.3662 40.1825 24.1061 44.4655C23.9654 44.5577 23.8008 44.6064 23.6327 44.6054C23.1967 44.5542 23.1218 43.9671 23.0367 43.5335C22.9515 43.1 22.3555 42.6597 22.1512 43.0454C22.0966 43.1918 22.0966 43.353 22.1512 43.4994C22.4803 45.0568 22.3573 46.6762 21.797 48.1658L20.0941 45.2028C19.9715 44.9911 19.7944 44.7488 19.5491 44.7693C19.2086 44.7966 19.1438 45.2369 19.1677 45.5612C19.3005 47.3636 19.9102 49.1898 19.4674 50.941C19.0757 52.501 17.8701 53.7709 16.4465 54.5082C14.9911 55.1959 13.3997 55.546 11.7908 55.5323C10.2684 55.5732 8.59614 55.365 7.53694 54.2658C6.6923 53.3954 6.40622 52.1255 6.30064 50.9137C6.16441 49.3503 6.30064 47.6981 7.10781 46.36C7.96947 44.9502 9.46802 44.0797 10.9189 43.2878C11.2152 43.1307 11.5455 42.9259 11.6 42.605C11.692 42.052 10.9189 41.7278 10.4012 41.9496C9.88352 42.1715 9.5736 42.6767 9.16831 43.0591C8.30324 43.8647 7.03629 44.0831 5.86129 43.9876C4.59338 43.8972 3.39316 43.3799 2.45551 42.5197C1.99837 42.0831 1.63231 41.5599 1.37857 40.9803C1.12483 40.4008 0.988467 39.7765 0.977399 39.1437Z" fill="#F1EFED"/>
<path d="M4.0869 39.0717C4.17972 39.249 4.28204 39.421 4.39342 39.5872C4.62161 39.9285 5.22784 40.9526 5.68762 40.9526C5.85304 40.9111 6.00607 40.8303 6.13378 40.7171C6.69914 40.246 5.71146 39.2731 5.45262 38.9011C5.03858 38.3208 4.82564 37.6206 4.84639 36.9075C4.87704 36.1702 5.29255 35.764 5.80001 35.2758C6.17465 34.914 6.48117 34.4805 6.84218 34.122C7.20319 33.7636 7.19979 33.1867 6.5016 33.2925C6.31171 33.3289 6.13033 33.4007 5.96689 33.5042C5.24943 33.9139 4.65675 34.5117 4.25237 35.2333C3.84799 35.9549 3.64715 36.7732 3.67139 37.6005C3.70498 38.1148 3.84658 38.6161 4.0869 39.0717Z" fill="#F1EFED"/>
<path d="M24.3581 33.2517C24.4535 33.3712 24.6646 33.3302 25.3254 33.0264C25.732 32.8438 26.1247 32.6316 26.5004 32.3915C28.1419 31.1319 30.1582 30.3058 32.0927 29.6606C32.1659 29.6455 32.2312 29.6042 32.2766 29.5446C32.5252 29.1213 30.7337 29.1622 30.4987 29.2271C30.0028 29.4147 29.5233 29.643 29.0649 29.9098C27.6549 30.5925 26.1462 31.3162 24.9269 32.3232C24.7293 32.4598 24.1095 32.9274 24.3581 33.2517Z" fill="#F1EFED"/>
<path d="M25.1687 42.6698C25.7647 43.0111 27.1032 41.9666 27.5766 41.7174C28.5098 41.2304 29.4418 40.7399 30.3727 40.2461C30.9578 40.0022 31.5013 39.6682 31.9837 39.2562C32.1437 39.0923 32.3855 38.8397 32.2118 38.6008C31.9496 38.2355 30.8495 38.9421 30.509 39.0753C28.8674 39.8604 27.2224 40.6421 25.6217 41.5057C25.3938 41.6061 25.1938 41.7608 25.0393 41.9563C24.965 42.0568 24.9284 42.1803 24.9359 42.3051C24.9434 42.4299 24.9944 42.5482 25.0801 42.639C25.1087 42.6519 25.1383 42.6622 25.1687 42.6698Z" fill="#F1EFED"/>
<path d="M30.5464 36.8087C30.7082 36.86 30.8818 36.86 31.0436 36.8087C32.8964 36.4093 34.412 35.532 36.0467 34.6342C37.6815 33.7365 39.238 32.9274 40.8387 32.0809C42.201 31.364 42.4905 31.1387 42.4905 30.794C42.4905 29.7699 39.4082 31.818 39.0268 32.0809C38.0818 32.6774 37.1051 33.2221 36.1012 33.7126C34.8615 34.3407 33.6116 35.1121 32.2765 35.5218C32.0075 35.6071 29.5315 35.9553 30.451 36.7541C30.4797 36.7773 30.5119 36.7958 30.5464 36.8087Z" fill="#F1EFED"/>
<path d="M35.2737 27.6089C35.4201 27.8069 35.4984 27.8069 35.9548 27.6635C36.1838 27.6014 36.392 27.4788 36.5576 27.3085C36.8082 27.0794 37.1058 26.9081 37.4295 26.8067C38.7373 26.2742 39.6365 25.7827 40.0179 25.373C40.4573 24.9258 40.4573 24.5128 40.0179 24.4479C39.6501 24.3933 36.8335 25.7041 36.3976 26.1547C36.1381 26.3974 35.8652 26.6254 35.5802 26.8375C35.0387 27.2368 35.025 27.2778 35.2737 27.6089Z" fill="#F1EFED"/>
<path d="M47.6604 12.4904C47.8629 12.7739 48.1185 13.0151 48.4131 13.2005L50.93 15.0199C51.1684 15.1906 51.5022 15.3613 51.7235 15.1701C51.8315 15.0474 51.8919 14.8899 51.8938 14.7263C52.0984 12.9603 52.1701 11.1814 52.1084 9.40457C52.1084 9.29875 52.0846 9.16562 51.9858 9.12807C51.9303 9.11096 51.871 9.11096 51.8155 9.12807C50.7938 9.39774 46.7988 10.7563 47.6094 12.3846C47.6241 12.421 47.6412 12.4563 47.6604 12.4904ZM49.9355 10.8144C50.7393 10.1521 51.0151 10.473 51.2127 11.422C51.3727 12.1662 51.3319 13.4701 51.148 13.6613C51.0015 13.7944 48.9138 12.1184 48.9138 11.8385C48.9138 11.6814 49.5915 11.0806 49.9355 10.8144Z" fill="#F1EFED"/>
<path d="M56.2464 11.8349C56.2564 12.0134 56.2769 12.1913 56.3077 12.3674C56.3116 12.4535 56.3359 12.5373 56.3785 12.6121C56.4212 12.6869 56.481 12.7505 56.553 12.7975C56.8424 12.9306 57.0911 12.5517 57.2001 12.2513C58.5181 8.53395 61.0213 5.38321 63.4667 2.29733C63.7698 1.91501 64.0695 1.34494 63.7324 0.993344C63.611 0.887035 63.4663 0.811004 63.31 0.771461C62.0652 0.359806 60.7753 0.100764 59.4683 -8.09878e-06C58.7872 -0.0512118 58.0004 -8.12765e-06 57.7143 0.682708C57.3567 1.53269 57.3942 2.80254 57.2614 3.71738C56.9617 5.76553 56.6699 7.81368 56.3861 9.86183C56.2752 10.5133 56.2284 11.1742 56.2464 11.8349ZM57.7007 6.12396C57.9255 4.91896 58.2286 3.39309 58.3819 2.71038C58.7224 1.21523 58.8961 1.03089 59.969 1.16061C60.96 1.28009 62.5846 1.65217 62.5846 1.75799C62.4028 2.09409 62.1907 2.41288 61.9511 2.71038C61.6105 3.18828 60.8783 4.18163 60.3368 4.92238C59.3976 6.1867 58.5355 7.50675 57.7552 8.87531C57.6076 9.17021 57.4271 9.44735 57.2171 9.70139C57.0809 9.70139 57.2375 8.53395 57.7007 6.12396Z" fill="#F1EFED"/>
<path d="M64.0594 29.2167C64.8154 29.797 65.8576 29.9268 66.8249 30.0223L70.6223 30.4047L84.4634 31.7872C85.8876 31.9866 87.3302 32.0175 88.7615 31.8793C89.0272 31.8093 89.3064 31.8093 89.5721 31.8793C89.6951 31.9361 89.8097 32.0096 89.9127 32.0978L92.9098 34.402C94.143 35.4218 95.4824 36.3054 96.9047 37.0373C98.3488 37.72 99.9972 38.0613 101.557 37.7439C102.478 37.5202 103.339 37.0956 104.078 36.5002C104.817 35.9049 105.415 35.1535 105.831 34.2996C106.652 32.5748 106.901 30.6326 106.543 28.7559C106.38 27.7762 106.087 26.7453 106.455 25.8236C106.715 25.2931 107.067 24.8125 107.493 24.4036C109.22 22.4681 110.504 19.8123 109.802 17.3136C109.012 14.4905 105.842 12.8452 102.919 12.9749C99.9972 13.1046 97.3202 14.6442 94.9532 16.3851C93.4547 17.474 91.9459 18.7029 90.1204 19.0135C88.9318 19.2149 87.7193 19.0135 86.5307 18.8156C80.5104 17.842 74.4372 17.2321 68.3438 16.9893C67.5741 16.9415 65.391 16.6001 65.391 17.7505C65.391 18.9009 66.4536 19.7133 67.1552 20.4233C67.339 20.5759 67.4602 20.791 67.4958 21.0276C67.4789 21.1657 67.4347 21.299 67.3657 21.4198C67.2967 21.5406 67.2043 21.6463 67.0939 21.7308L65.5 23.3317L67.3766 25.6018C67.4631 25.6785 67.5308 25.7741 67.5745 25.8812C67.6182 25.9884 67.6367 26.1041 67.6286 26.2196C67.5653 26.3878 67.4447 26.528 67.2881 26.6156L63.8312 29.0051C63.9024 29.0807 63.9787 29.1514 64.0594 29.2167ZM68.0509 27.5099L68.9535 26.7658C69.0885 26.679 69.1886 26.5472 69.2362 26.3937C69.2404 26.2993 69.225 26.205 69.191 26.1169C69.157 26.0288 69.1051 25.9487 69.0386 25.8817L67.1484 23.3659L68.7627 21.782C68.8962 21.6832 69.0073 21.5574 69.0889 21.4127C69.1705 21.268 69.2206 21.1077 69.2362 20.9422C69.1851 20.1127 67.5333 19.8635 68.0033 18.9896C68.5618 17.9212 71.5385 18.3069 72.4308 18.4059L88.9522 20.0103C89.8173 20.0956 90.8731 20.3312 91.1047 21.1709C91.5246 20.4325 92.0933 19.7897 92.7747 19.2837C93.4561 18.7777 94.2351 18.4195 95.0622 18.2318L95.2155 19.4778C95.2181 19.6388 95.2679 19.7954 95.3585 19.9284C95.4209 19.9812 95.4934 20.0207 95.5717 20.0443C95.6499 20.0678 95.7321 20.0751 95.8132 20.0655C95.8944 20.0559 95.9726 20.0296 96.0432 19.9884C96.1138 19.9472 96.1752 19.8919 96.2236 19.826C96.4071 19.5482 96.5237 19.2315 96.5642 18.9009C96.7993 17.8015 97.3317 16.7882 98.1031 15.9719C98.8745 15.1555 99.8551 14.5677 100.938 14.2726C102.02 13.9776 103.163 13.9868 104.24 14.2992C105.318 14.6116 106.289 15.2151 107.047 16.0437C108.447 17.573 108.978 19.9216 108.161 21.8263C107.343 23.7311 105.113 24.9873 103.103 24.4855C102.643 24.3695 102.173 24.1715 101.71 24.2773C101.247 24.3831 100.876 24.9907 101.199 25.3389C101.431 25.5881 101.83 25.5335 102.173 25.5335C103.628 25.5335 104.704 26.9501 105.126 28.3497C105.414 29.28 105.503 30.2603 105.39 31.2275C105.276 32.1947 104.961 33.1272 104.466 33.965C103.954 34.7948 103.245 35.4835 102.401 35.9687C101.557 36.4539 100.605 36.7203 99.6328 36.7437C98.66 36.7401 97.709 36.4551 96.8939 35.9228C96.0789 35.3905 95.4346 34.6336 95.0384 33.7431C94.5071 32.4426 94.565 30.8962 93.7476 29.7561C93.5859 30.7182 93.2985 31.6547 92.8927 32.5416C91.9255 32.4869 91.1047 31.7394 90.6824 30.8655C90.2601 29.9916 90.1579 29.0017 90.0625 28.0322C89.4019 28.9196 88.9839 29.9645 88.8501 31.0635C81.4968 30.7492 74.1799 29.8521 66.9679 28.3804L68.0509 27.5099ZM107.773 15.3986C107.96 15.3986 108.263 15.9277 108.369 16.3919C108.447 16.7333 108.396 16.6821 108.052 16.1256C107.589 15.361 107.602 15.3986 107.773 15.3986Z" fill="#F1EFED"/>
<path d="M70.4996 20.0276C70.4966 20.1593 70.508 20.2909 70.5337 20.4201C70.5332 20.4685 70.5424 20.5165 70.5608 20.5612C70.5792 20.606 70.6063 20.6466 70.6406 20.6806C70.6749 20.7147 70.7157 20.7415 70.7605 20.7595C70.8053 20.7775 70.8532 20.7863 70.9015 20.7854C71.3288 20.8526 71.7644 20.8445 72.1889 20.7615C71.8999 20.6983 71.6393 20.5425 71.4464 20.3177C73.5751 19.8262 75.7854 21.0516 77.9447 20.7103C77.5395 20.2438 76.9926 19.9236 76.3882 19.7988C74.8442 19.4058 73.2631 19.1769 71.6712 19.1161C70.9356 19.0615 70.5303 19.396 70.4996 20.0276Z" fill="#F1EFED"/>
<path d="M70.8778 28.3637C71.2864 28.5753 72.6862 28.7494 74.7365 28.8416C75.7923 28.8825 77.3658 28.9747 78.2376 29.0396C81.2109 29.2785 82.2803 29.2649 82.454 29.0123C82.7571 28.5241 82.3484 28.4183 79.6238 28.2578C77.0218 28.1008 75.37 27.9814 72.6351 27.7287C72.1002 27.6565 71.5597 27.6348 71.0208 27.6639C70.9192 27.7535 70.8349 27.8611 70.7722 27.9814C70.6666 28.1793 70.6904 28.2578 70.8778 28.3637Z" fill="#F1EFED"/>
<path d="M71.8143 24.4582C72.0255 24.6562 72.2775 24.6835 73.5717 24.6153C74.3349 24.5751 75.1 24.5933 75.8604 24.6699C76.2963 24.7347 77.0354 24.8542 77.5122 24.9327C77.989 25.0112 79.2934 25.1205 80.4173 25.199C81.4358 25.2534 82.4509 25.3593 83.4587 25.5164C85.1616 25.8578 86.6158 26.0319 86.827 25.9397C86.9734 25.8885 87.0245 25.7417 87.0007 25.5028C86.9598 25.1614 86.9326 25.1341 85.7031 24.9737C85.0219 24.8952 83.8537 24.7347 83.1283 24.6323C82.4029 24.5299 81.3811 24.3797 80.8805 24.3422L77.7744 24.0008C74.7365 23.6424 72.0255 23.5229 71.7632 23.7482C71.501 23.9735 71.5214 24.1783 71.8143 24.4582Z" fill="#F1EFED"/>
<path d="M78.7587 21.4614C78.8407 21.4906 78.9271 21.5056 79.0141 21.5058L84.1569 21.7038C84.3274 21.7232 84.5001 21.7022 84.6609 21.6423C84.741 21.6106 84.8078 21.5522 84.8499 21.477C84.8921 21.4018 84.9072 21.3143 84.8925 21.2293C84.838 21.0347 84.5996 20.9664 84.3987 20.9323C82.8882 20.6856 81.358 20.5816 79.8281 20.6217C79.6204 20.6217 78.1252 20.963 78.6702 21.417C78.6964 21.4377 78.7265 21.4528 78.7587 21.4614Z" fill="#F1EFED"/>
<path d="M96.8843 31.8864C97.0467 32.3249 97.3207 32.7132 97.6792 33.0126C98.0377 33.3121 98.4682 33.5122 98.9278 33.5932C99.895 33.8322 100.423 33.7776 101.056 33.3952C101.52 33.1153 102.616 32.0947 102.616 31.9513C102.717 31.725 102.85 31.5145 103.011 31.3266C103.502 30.7326 103.515 30.1762 103.052 30.108C102.841 30.0841 102.681 30.2001 102.432 30.5859C101.904 31.3324 101.218 31.9525 100.423 32.4019C100.286 32.4831 100.133 32.5312 99.9742 32.5425C99.8157 32.5537 99.6569 32.5278 99.5102 32.4668C98.7982 32.1551 98.152 31.7102 97.6063 31.1559C96.8434 30.4561 96.4892 30.8146 96.8843 31.8864Z" fill="#F1EFED"/>
</g>
<defs>
<clipPath id="clip0_39_106">
<rect width="110" height="57" fill="#000"/>
</clipPath>
</defs>
</svg>
