<svg width="404" height="216" viewBox="0 0 404 216" fill="none" xmlns="http://www.w3.org/2000/svg">
<path d="M26.1818 96L0.727295 2.90906H12.1818L31.6364 78.7272H32.5455L52.3637 2.90906H65.0909L84.9091 78.7272H85.8182L105.273 2.90906H116.727L91.2728 96H79.6364L59.0909 21.8181H58.3637L37.8182 96H26.1818Z" fill="#F1EFED"/>
<path d="M130.773 96V2.90906H142.045V44.3636H191.682V2.90906H202.955V96H191.682V54.3636H142.045V96H130.773Z" fill="#F1EFED"/>
<path fill-rule="evenodd" clip-rule="evenodd" d="M277.471 17.3035L277.469 17.3019C273.091 14.5583 268.186 13.1818 262.727 13.1818C257.269 13.1818 252.348 14.558 247.939 17.3026C243.576 20.0372 240.073 24.08 237.445 29.4817C234.861 34.8563 233.545 41.5008 233.545 49.4545C233.545 57.4081 234.861 64.0525 237.445 69.427C240.072 74.8284 243.575 78.871 247.938 81.6057C252.347 84.3508 257.269 85.7273 262.727 85.7273C268.186 85.7273 273.091 84.3507 277.469 81.6072L277.471 81.6056C281.864 78.8711 285.366 74.8295 287.962 69.4303L287.964 69.4263C290.578 64.0523 291.909 57.4083 291.909 49.4545C291.909 41.5007 290.578 34.8568 287.964 29.4828L287.962 29.4788C285.366 24.0796 281.864 20.038 277.471 17.3035ZM247.409 82.4545C242.864 79.6061 239.242 75.4091 236.545 69.8636C233.879 64.3182 232.545 57.5151 232.545 49.4545C232.545 41.3939 233.879 34.5909 236.545 29.0454C239.242 23.5 242.864 19.303 247.409 16.4545C251.985 13.6061 257.091 12.1818 262.727 12.1818C268.364 12.1818 273.455 13.6061 278 16.4545C282.576 19.303 286.197 23.5 288.864 29.0454C291.561 34.5909 292.909 41.3939 292.909 49.4545C292.909 57.5151 291.561 64.3182 288.864 69.8636C286.197 75.4091 282.576 79.6061 278 82.4545C273.455 85.303 268.364 86.7273 262.727 86.7273C257.091 86.7273 251.985 85.303 247.409 82.4545ZM304.818 49.4545C304.818 59.392 303.024 68.0356 299.396 75.3533C295.776 82.6541 290.793 88.3156 284.441 92.3016C278.086 96.2891 270.837 98.2727 262.727 98.2727C254.617 98.2727 247.369 96.2891 241.014 92.3016C234.661 88.3156 229.678 82.6541 226.059 75.3533C222.431 68.0356 220.636 59.392 220.636 49.4545C220.636 39.517 222.431 30.8735 226.059 23.5558C229.678 16.255 234.661 10.5935 241.014 6.60747C247.369 2.62001 254.617 0.636353 262.727 0.636353C270.837 0.636353 278.086 2.62001 284.441 6.60747C290.793 10.5935 295.776 16.255 299.396 23.5558C303.024 30.8735 304.818 39.517 304.818 49.4545ZM8.27271 118.909H23.3984L54.9091 195.875L86.4197 118.909H101.545V214H89V145.123L60.67 214H49.1482L20.8182 145.123V214H8.27271V118.909ZM20.7273 142.273L49.8182 213H60L89.0909 142.273H90V213H100.545V119.909H87.0909L55.4545 197.182H54.3636L22.7273 119.909H9.27271V213H19.8182V142.273H20.7273ZM175.346 134.303L175.344 134.302C170.966 131.558 166.061 130.182 160.602 130.182C155.145 130.182 150.224 131.558 145.815 134.302C141.451 137.037 137.947 141.08 135.32 146.483C132.736 151.857 131.42 158.501 131.42 166.455C131.42 174.408 132.736 181.053 135.32 186.428C137.948 191.83 141.451 195.873 145.815 198.607C150.224 201.351 155.145 202.727 160.602 202.727C166.061 202.727 170.966 201.351 175.344 198.607L175.346 198.606C179.739 195.871 183.241 191.829 185.837 186.43L185.839 186.426C188.453 181.052 189.784 174.408 189.784 166.455C189.784 158.501 188.453 151.857 185.839 146.483L185.837 146.479C183.241 141.08 179.739 137.038 175.346 134.303ZM145.284 199.455C140.739 196.606 137.117 192.409 134.42 186.864C131.754 181.318 130.42 174.515 130.42 166.455C130.42 158.394 131.754 151.591 134.42 146.045C137.117 140.5 140.739 136.303 145.284 133.455C149.86 130.606 154.966 129.182 160.602 129.182C166.239 129.182 171.33 130.606 175.875 133.455C180.451 136.303 184.072 140.5 186.739 146.045C189.436 151.591 190.784 158.394 190.784 166.455C190.784 174.515 189.436 181.318 186.739 186.864C184.072 192.409 180.451 196.606 175.875 199.455C171.33 202.303 166.239 203.727 160.602 203.727C154.966 203.727 149.86 202.303 145.284 199.455ZM202.693 166.455C202.693 176.392 200.899 185.036 197.271 192.353C193.651 199.654 188.668 205.316 182.316 209.302C175.961 213.289 168.713 215.273 160.602 215.273C152.492 215.273 145.244 213.289 138.889 209.302C132.536 205.316 127.553 199.654 123.934 192.353C120.306 185.036 118.511 176.392 118.511 166.455C118.511 156.517 120.306 147.874 123.934 140.556C127.553 133.255 132.536 127.593 138.889 123.607C145.244 119.62 152.492 117.636 160.602 117.636C168.713 117.636 175.961 119.62 182.316 123.607C188.668 127.593 193.651 133.255 197.271 140.556C200.899 147.874 202.693 156.517 202.693 166.455ZM232.92 118.909V214H219.648V118.909H232.92ZM244.734 118.909H260.001L285.795 162.324L311.59 118.909H326.857L292.432 174.919V214H279.159V174.919L244.734 118.909ZM280.159 174.636V213H291.432V174.636L325.068 119.909H312.159L286.341 163.364H285.25L259.432 119.909H246.523L280.159 174.636ZM334.672 214H320.715L355.631 118.909H368.664L403.58 214H389.623L380.265 187.636H344.031L334.672 214ZM333.966 213H322.148L356.33 119.909H367.966L402.148 213H390.329L380.971 186.636H343.325L333.966 213ZM362.511 134.636H361.784L346.875 176.636H377.421L362.511 134.636ZM376.005 175.636L362.148 136.601L348.291 175.636H376.005ZM298.5 74.9091C302.045 67.7576 303.818 59.2727 303.818 49.4545C303.818 39.6364 302.045 31.1515 298.5 24C294.955 16.8485 290.091 11.3333 283.909 7.45454C277.727 3.57575 270.667 1.63635 262.727 1.63635C254.788 1.63635 247.727 3.57575 241.545 7.45454C235.364 11.3333 230.5 16.8485 226.955 24C223.409 31.1515 221.636 39.6364 221.636 49.4545C221.636 59.2727 223.409 67.7576 226.955 74.9091C230.5 82.0606 235.364 87.5758 241.545 91.4545C247.727 95.3333 254.788 97.2727 262.727 97.2727C270.667 97.2727 277.727 95.3333 283.909 91.4545C290.091 87.5758 294.955 82.0606 298.5 74.9091ZM196.375 191.909C199.92 184.758 201.693 176.273 201.693 166.455C201.693 156.636 199.92 148.152 196.375 141C192.83 133.848 187.966 128.333 181.784 124.455C175.602 120.576 168.542 118.636 160.602 118.636C152.663 118.636 145.602 120.576 139.42 124.455C133.239 128.333 128.375 133.848 124.83 141C121.284 148.152 119.511 156.636 119.511 166.455C119.511 176.273 121.284 184.758 124.83 191.909C128.375 199.061 133.239 204.576 139.42 208.455C145.602 212.333 152.663 214.273 160.602 214.273C168.542 214.273 175.602 212.333 181.784 208.455C187.966 204.576 192.83 199.061 196.375 191.909ZM231.92 119.909H220.648V213H231.92V119.909Z" fill="#F1EFED"/>
</svg>
