<svg width="50" height="59" viewBox="0 0 50 59" fill="none" xmlns="http://www.w3.org/2000/svg">
<g clip-path="url(#clip0_39_171)">
<path d="M0.289533 47.7724C0.775432 48.4224 1.72242 48.5952 2.54741 48.5253C3.41583 48.4636 4.29458 48.2291 5.14438 48.4142C5.28912 49.523 6.37464 50.3273 7.48703 50.5001C8.59943 50.6729 9.71803 50.3499 10.7829 49.9879C10.6257 51.4916 12.0028 52.8082 13.4853 53.1435C14.9678 53.4788 16.5082 53.088 17.9762 52.6971C19.2975 54.6575 21.6773 55.7169 24.0386 55.9453C26.3999 56.1736 28.7673 55.6696 31.0686 55.0669C34.4182 58.9754 40.5798 60.1624 45.1576 57.7699C46.3093 57.1672 47.4858 56.0502 47.1922 54.7892C46.8448 53.306 44.8909 52.9975 43.3608 52.9995C44.7982 49.4028 45.3161 45.5076 44.8681 41.6628C44.7606 40.7515 44.5993 39.8299 44.7151 38.9186C44.8351 37.962 45.2548 37.0672 45.4967 36.1333C45.8027 34.902 45.8048 33.6153 45.5027 32.3831C45.2006 31.1509 44.6034 30.0096 43.7619 29.0568C43.4518 28.7112 43.0941 28.3656 43.0011 27.911C42.9618 27.5885 42.9935 27.2614 43.0941 26.9524C44.9695 19.5036 48.1412 12.4107 49.7581 4.9022C50.0063 3.75021 50.2006 2.47892 49.6155 1.45654C48.8918 0.185241 47.1674 -0.228238 45.7407 0.117357C42.4118 0.921687 40.1125 4.28301 38.0449 6.75154C35.7567 9.50258 33.6008 12.3572 31.5773 15.3153C30.8701 16.3507 30.1809 17.3964 29.5096 18.4524C29.1636 19.0009 28.819 19.5495 28.4758 20.0981C28.2049 20.5383 27.9237 21.3323 27.535 21.6615C28.803 20.5654 29.8023 19.1955 30.4566 17.6563L32.3485 20.7769C31.8967 20.7463 31.4455 20.844 31.0472 21.0585C30.649 21.2729 30.3202 21.5955 30.0989 21.9886C25.0683 21.1205 19.6614 24.5682 18.3546 29.4785C19.039 29.388 19.1817 28.5014 19.465 27.874C20.1452 26.3188 22.1777 25.9629 23.8815 25.9506C26.7823 25.9344 29.6732 26.2897 32.4829 27.0079C28.7948 25.4959 24.7366 25.1155 20.8296 25.9156C23.5176 22.2395 29.1953 21.1637 33.0494 23.5993C32.9537 23.1262 32.6861 22.7049 32.2978 22.4157C31.9095 22.1266 31.4277 21.9899 30.9446 22.0318C31.1107 21.7554 31.3593 21.5375 31.6558 21.4084C31.9523 21.2794 32.2819 21.2456 32.5987 21.3118L33.6553 22.7044L33.3038 21.1328L36.4673 20.4704L37.4473 22.9389C36.7901 23.1584 36.1844 23.5083 35.6671 23.9675L37.7058 23.4717L38.2889 25.5494L42.387 27.9439C43.3115 28.8726 44.0361 29.9791 44.5164 31.1958C44.9966 32.4125 45.2226 33.7139 45.1804 35.0204C43.9253 32.8871 42.265 30.8444 39.9616 29.9146C39.5109 29.7315 38.7355 29.8632 38.8782 30.326C42.6185 30.7868 45.3747 35.0409 44.2541 38.6203C42.8915 35.2652 40.0546 32.6341 36.794 31.0378C33.5333 29.4415 29.8652 28.8079 26.2324 28.6783C24.051 28.6001 21.8407 28.6989 19.7462 29.2954C14.3103 30.8568 10.3383 35.5881 7.92951 40.6651C7.39445 40.3448 6.77578 40.1901 6.15211 40.2205C5.52844 40.2509 4.92794 40.4651 4.42691 40.8358C3.93971 41.2239 3.57952 41.7474 3.39212 42.3397C3.20472 42.932 3.19858 43.5664 3.37447 44.1622C2.46884 44.3679 1.52806 44.6024 0.82092 45.1907C0.113783 45.779 -0.268733 46.8775 0.219233 47.6592C0.241977 47.7045 0.264721 47.7395 0.289533 47.7724ZM0.597614 46.5196C0.707206 46.1569 0.93303 45.8397 1.24065 45.6165C1.69202 45.2601 2.22348 45.0177 2.78954 44.9103C3.35561 44.8028 3.93942 44.8334 4.491 44.9994C4.00717 44.2218 3.77146 43.255 4.02165 42.3745C4.27183 41.4941 5.06995 40.7494 5.99005 40.7288C6.91016 40.7083 7.80959 41.5311 7.71241 42.4404C7.85508 41.095 8.84962 39.4946 9.52574 38.3488C10.3025 37.0326 11.2294 35.8102 12.2881 34.7056C14.4344 32.4634 17.0644 30.7169 20.0646 29.8529C25.0642 28.4129 30.5496 29.1206 35.2949 31.1139C38.0056 32.2535 40.6191 33.8601 42.3105 36.2567C44.2024 38.9309 44.7627 42.3642 44.5125 45.6289C44.2623 48.8935 43.2719 52.0471 42.2774 55.1677C42.7571 55.2623 43.0259 54.6616 43.3112 54.2605C43.508 53.9826 43.7826 53.7683 44.1007 53.6442C44.4189 53.5201 44.7667 53.4916 45.1009 53.5624C45.4352 53.6332 45.7412 53.8 45.981 54.0422C46.2208 54.2844 46.3838 54.5914 46.4499 54.925C46.5946 55.6511 46.2431 56.4102 45.7097 56.9224C45.146 57.4082 44.4785 57.76 43.7578 57.951C42.1078 58.4642 40.3695 58.6354 38.6504 58.4539C36.9312 58.2724 35.2678 57.7421 33.7628 56.8957C33.2169 56.585 32.6793 56.2168 32.3423 55.6902C32.0053 55.1636 31.9102 54.4374 32.2575 53.9149C32.518 53.5261 33.0102 53.2278 32.9998 52.7609C29.6523 55.7231 24.388 56.3012 20.4698 54.1391C19.7565 53.7462 19.0494 53.2278 18.7537 52.4708C18.458 51.7138 18.7537 50.6853 19.5228 50.4322C20.2258 50.2039 21.177 50.5927 21.6236 50.0002C20.1004 50.0729 18.5927 49.6686 17.3125 48.8441C17.1886 48.9097 17.093 49.0179 17.0435 49.1485C16.994 49.2792 16.9941 49.4233 17.0437 49.5538C17.817 49.3646 18.4911 50.3294 18.274 51.0926C18.0569 51.8558 17.3063 52.3412 16.5516 52.5963C15.3296 53.0077 13.9133 52.9728 12.8174 52.296C11.7216 51.6192 11.0434 50.2389 11.3825 49.0046C10.8081 49.4455 10.1429 49.7545 9.4344 49.9096C8.7259 50.0647 7.9917 50.0619 7.2844 49.9015C6.91176 49.8362 6.56703 49.6622 6.294 49.4016C5.62821 48.6837 6.11411 47.4782 6.85847 46.8405C7.37232 46.4088 7.98124 46.1038 8.63579 45.9501C9.29035 45.7964 9.97211 45.7984 10.6257 45.956C9.63453 45.6172 8.76189 45.0024 8.11147 44.1848C7.68504 45.3349 6.91013 46.325 5.8938 47.0181C4.87747 47.7113 3.66987 48.0733 2.43783 48.0542C1.61076 48.0254 0.589343 47.6017 0.576937 46.7685C0.573388 46.685 0.580334 46.6014 0.597614 46.5196ZM30.7419 21.6286C30.7633 21.6286 30.7838 21.637 30.799 21.6521C30.8141 21.6671 30.8226 21.6875 30.8226 21.7088C30.8216 21.7297 30.8127 21.7496 30.7978 21.7644C30.7829 21.7792 30.763 21.788 30.7419 21.789C30.7314 21.789 30.7211 21.7869 30.7114 21.7829C30.7017 21.7788 30.693 21.7729 30.6856 21.7654C30.6783 21.7579 30.6726 21.7491 30.6687 21.7393C30.6649 21.7296 30.6631 21.7192 30.6634 21.7088C30.6633 21.6987 30.6654 21.6887 30.6694 21.6795C30.6734 21.6702 30.6793 21.6619 30.6866 21.6549C30.694 21.648 30.7027 21.6426 30.7122 21.6391C30.7217 21.6357 30.7318 21.6342 30.7419 21.6347V21.6286ZM30.8308 17.1358C31.3272 16.3335 31.8656 15.5576 32.4436 14.8113C32.5966 14.6673 32.6049 14.6673 32.7248 14.8113C32.8287 14.965 32.9226 15.125 33.006 15.2906C33.1381 15.5291 33.291 15.7556 33.463 15.9674C33.953 16.5598 34.137 16.854 34.0647 16.926C33.8332 17.0148 33.5946 17.0836 33.3513 17.1317C32.9977 17.2037 32.4043 17.3374 32.0342 17.4197C31.4408 17.5637 31.0231 17.5699 30.7936 17.4362C30.7192 17.3806 30.7275 17.3498 30.8308 17.142V17.1358ZM32.0962 17.8085C32.5387 17.7015 33.1301 17.7345 33.4009 17.6419C33.6718 17.5493 33.9509 17.3601 34.2425 17.4074C34.534 17.4547 34.7056 17.6913 34.8628 17.9134C35.2904 18.5101 35.6872 19.128 36.0517 19.7648C36.0716 19.7909 36.086 19.8208 36.0938 19.8527C36.1016 19.8845 36.1028 19.9177 36.0972 19.95C36.0723 20.0302 35.9793 20.061 35.8904 20.0816C34.971 20.3106 34.046 20.5164 33.1156 20.6988C33.0479 20.7171 32.9765 20.7171 32.9088 20.6988C32.8429 20.665 32.7882 20.6128 32.7517 20.5486C32.3647 20.0039 32.0145 19.4342 31.7034 18.8432C31.6177 18.7008 31.5615 18.5427 31.538 18.3783C31.5152 18.0533 31.7654 17.897 32.0962 17.8147V17.8085ZM33.2583 13.9885C33.771 13.6367 35.1192 13.4577 35.4603 13.3878C35.5152 13.3644 35.5771 13.3636 35.6325 13.3856C35.6879 13.4076 35.7323 13.4505 35.756 13.505C36.387 14.4374 36.9303 15.4255 37.3791 16.457C36.552 16.6161 35.725 16.734 34.8979 16.8108C34.7828 16.8318 34.6641 16.8211 34.5547 16.78C34.4505 16.7133 34.3668 16.6193 34.3128 16.5084L33.1859 14.6056C33.1234 14.513 33.0805 14.4087 33.0598 14.2991C33.0453 14.1942 33.1239 14.0851 33.2583 13.9885ZM33.8972 12.4456C34.0006 12.2523 34.197 11.8881 34.4596 11.882C34.6436 11.882 35.4417 12.7048 35.3611 12.8694C35.3393 12.8976 35.3115 12.9207 35.2797 12.9371C35.2479 12.9534 35.2128 12.9626 35.1771 12.964L33.6635 13.2438C33.6461 13.2499 33.6272 13.2499 33.6098 13.2438C33.5829 13.2273 33.5891 13.1841 33.5974 13.1533C33.6774 12.9108 33.7776 12.6755 33.8972 12.4497V12.4456ZM35.3549 10.6559L35.6774 10.2939C35.8583 10.0867 36.101 9.94255 36.3701 9.88246C37.0171 9.67475 37.6846 9.53682 38.3612 9.47104C38.4385 9.44932 38.5213 9.45872 38.5917 9.49721C38.6621 9.5357 38.7145 9.60018 38.7376 9.67675C39.1263 10.3762 39.4922 11.0859 39.8417 11.8059C39.8665 11.8573 39.8913 11.9211 39.8562 11.9684C39.8314 11.9971 39.7967 12.0154 39.759 12.0198C38.6162 12.327 37.4618 12.5882 36.2957 12.8036C36.1894 12.8376 36.0752 12.8376 35.969 12.8036C35.8036 12.7274 35.7622 12.5156 35.6671 12.3592C35.5281 12.182 35.3579 12.0314 35.1646 11.9149C35.0696 11.8546 34.9923 11.7702 34.9407 11.6705C34.8891 11.5707 34.8651 11.4591 34.871 11.3471C34.9024 11.2338 34.9614 11.13 35.0427 11.0447C35.1502 10.9028 35.2494 10.7814 35.3569 10.6601L35.3549 10.6559ZM35.4355 17.1934C35.878 17.0659 37.65 16.891 37.7223 16.9877C37.8361 17.107 39.087 19.4563 39.087 19.5344C39.087 19.59 39.0312 19.6455 38.9671 19.6784C38.2016 19.792 37.4293 19.8532 36.6554 19.8615C36.4368 19.6221 36.2486 19.3568 36.0951 19.0716C35.8449 18.6602 35.5161 18.1623 35.3631 17.9628C35.0034 17.5082 35.0199 17.3251 35.4355 17.1975V17.1934ZM36.3804 13.2849C36.6389 12.9599 37.437 12.9146 37.7471 12.8426C38.4791 12.674 39.2193 12.5279 39.9616 12.4107C39.9894 12.398 40.0197 12.3916 40.0504 12.392C40.081 12.3924 40.1111 12.3995 40.1386 12.4129C40.1661 12.4263 40.1903 12.4456 40.2094 12.4694C40.2285 12.4932 40.242 12.5209 40.249 12.5505L41.2684 14.5583C41.4503 14.4678 41.4338 14.2045 41.3697 14.0111C41.2534 13.6623 41.0779 13.336 40.8507 13.0463C40.7641 12.9478 40.6943 12.836 40.6439 12.7151C40.6176 12.654 40.6103 12.5866 40.6228 12.5213C40.6353 12.4561 40.6672 12.3961 40.7142 12.3489C40.7804 12.303 40.8573 12.2747 40.9375 12.2667C42.1947 12.0225 43.4573 11.8093 44.7255 11.6269C44.8247 13.0874 45.5174 14.4719 45.5298 15.9468C45.5329 15.9701 45.5312 15.9938 45.5248 16.0165C45.5184 16.0391 45.5075 16.0602 45.4926 16.0785C45.4743 16.0926 45.4533 16.1029 45.431 16.1089C45.4086 16.1149 45.3853 16.1164 45.3623 16.1135L42.693 16.1299C42.5882 16.1394 42.4829 16.1194 42.389 16.0723C42.3159 16.0191 42.2576 15.9483 42.2195 15.8666L41.5206 14.5768C41.3325 14.6776 41.3697 14.9532 41.44 15.1528C41.5268 15.4079 41.6261 15.6588 41.7356 15.9057C41.7503 15.9287 41.7602 15.9543 41.7648 15.9812C41.7695 16.008 41.7687 16.0355 41.7625 16.062C41.7356 16.1402 41.6364 16.1587 41.5558 16.1649L38.2227 16.459C38.1334 16.4821 38.0386 16.4708 37.9573 16.4273C37.876 16.3838 37.8142 16.3114 37.7844 16.2245L36.4549 13.9411C36.3814 13.8341 36.3314 13.7128 36.3081 13.5853C36.2986 13.5316 36.3011 13.4765 36.3154 13.4239C36.3297 13.3713 36.3554 13.3224 36.3908 13.2808L36.3804 13.2849ZM36.8043 9.01642C36.9835 8.83667 37.1494 8.64416 37.3005 8.44043C37.6148 8.02901 37.6955 7.99403 37.774 8.2018C37.8403 8.34474 37.9243 8.47882 38.0242 8.60088C38.1276 8.74488 38.2 8.91151 38.1752 8.97528C38.1503 9.03905 37.8464 9.15219 37.4618 9.24682C36.5831 9.46281 36.4073 9.39081 36.8043 9.01642ZM37.0648 20.3655C37.4628 20.2724 37.8683 20.2139 38.2765 20.1906C39.1676 20.1186 39.3599 20.1186 39.4488 20.2071C39.6014 20.4605 39.7354 20.7245 39.8499 20.997C40.0092 21.3714 40.218 21.8507 40.3152 22.0585C40.5219 22.5296 40.4909 22.5604 39.6949 22.6324C39.3806 22.6653 38.8678 22.7373 38.5721 22.8011C38.2351 22.8731 37.9849 22.8896 37.9374 22.8402C37.5501 22.1092 37.2123 21.3532 36.9263 20.5774C36.9278 20.5329 36.9415 20.4896 36.9659 20.4523C36.9904 20.4149 37.0245 20.3849 37.0648 20.3655ZM38.2 7.11976C38.2882 6.97069 38.3999 6.83664 38.5308 6.72274C38.7376 6.56023 39.1511 6.51703 39.4054 6.45737C40.0715 6.2904 40.7458 6.1572 41.4255 6.05829C41.527 6.02142 41.6387 6.02428 41.7381 6.06629C41.8376 6.1083 41.9172 6.18633 41.961 6.28457C42.3045 6.79947 42.6199 7.33234 42.9059 7.88089C42.9597 7.98375 43.0093 8.11952 42.9328 8.20592C42.8808 8.25215 42.8143 8.27904 42.7447 8.28203C41.5537 8.46306 40.362 8.64271 39.1697 8.82099C39.0632 8.84773 38.9516 8.84773 38.8451 8.82099C38.72 8.76444 38.6154 8.6711 38.5453 8.55357L37.9849 7.80478C37.9325 7.74875 37.9023 7.67562 37.9002 7.59907C37.9096 7.5357 37.9385 7.47678 37.9829 7.43039C38.0449 7.34604 38.1235 7.2329 38.2 7.11976ZM38.2289 23.3195C38.3488 23.2249 40.586 22.8896 40.739 22.9451C40.8379 23.0366 40.9052 23.1568 40.9313 23.2887C40.9892 23.4553 41.1815 23.9058 41.3573 24.3172C42.3435 26.5368 42.5606 27.2465 42.2567 27.3597C42.143 27.407 41.2684 26.8968 39.7755 25.9197C39.5177 25.7496 39.24 25.6114 38.9485 25.5083C38.8324 25.4933 38.7236 25.4439 38.6362 25.3663C38.5804 25.2779 38.1545 23.6898 38.1379 23.5149C38.1393 23.478 38.148 23.4417 38.1636 23.4081C38.1792 23.3745 38.2014 23.3444 38.2289 23.3195ZM39.3434 16.7368C39.9285 16.6648 40.7721 16.5928 41.2043 16.5845L42.0065 16.5681L42.1512 16.8396C42.4552 17.4567 43.2512 19.195 43.2512 19.2752C43.2512 19.3555 42.1678 19.4974 41.4131 19.5612C40.9479 19.6023 40.3937 19.6496 40.1849 19.6825C39.8727 19.7216 39.7921 19.7052 39.6721 19.5612C39.4654 19.3143 38.2847 17.1441 38.2765 16.9918C38.2847 16.8952 38.4853 16.8458 39.3434 16.7429V16.7368ZM39.3434 9.45253C39.5625 9.0411 40.3999 9.00202 40.7659 8.95471C42.6227 8.72019 44.4836 8.52408 46.3486 8.36637C46.4872 8.34477 46.6291 8.35677 46.7621 8.40134C46.8746 8.45595 46.9714 8.53805 47.0433 8.63997C47.8125 9.61709 47.8104 11.0056 47.4775 12.2029C47.1446 13.4001 46.5223 14.5048 46.148 15.6897C45.6104 15.1877 45.6228 14.3567 45.4988 13.6326C45.4171 13.1515 45.2594 12.6863 45.0315 12.2543C44.9529 12.1021 44.8702 11.8964 44.9984 11.7791C45.067 11.7288 45.1511 11.7041 45.2362 11.7092C45.6987 11.6906 46.1606 11.7605 46.5967 11.9149C46.7166 11.956 46.8696 11.9972 46.9544 11.9025C47.0743 11.7688 46.8924 11.5714 46.7228 11.5117C46.1935 11.3245 45.5753 11.4767 45.0687 11.2299C44.343 10.8719 44.2168 9.90098 43.7103 9.2715C43.6234 9.16247 43.489 9.05345 43.3567 9.10076L44.2251 11.2546C43.0603 11.5444 41.8769 11.7547 40.6832 11.884C40.5607 11.9114 40.4325 11.8969 40.3193 11.8429C40.2332 11.7772 40.1673 11.6888 40.1291 11.5878L39.4261 10.1478C39.3499 10.0128 39.302 9.86369 39.2855 9.70967C39.2789 9.62417 39.2968 9.53856 39.3372 9.46281L39.3434 9.45253ZM39.5667 5.46173C39.8396 4.95157 40.249 4.32826 40.5654 4.45786C40.6677 4.51274 40.7528 4.59459 40.8114 4.69443L41.411 5.5543C40.7457 5.78663 40.0686 5.98438 39.3827 6.14675C39.366 6.1533 39.3478 6.15542 39.3301 6.1529C39.3123 6.15037 39.2955 6.14329 39.2813 6.13235C39.2565 6.10561 39.2813 6.06035 39.2813 6.02538C39.331 5.92458 39.4302 5.70858 39.5605 5.4679L39.5667 5.46173ZM40.0422 20.1598C40.1146 20.1125 43.0734 19.7936 43.427 19.7936C43.6193 19.7936 43.6606 19.8492 43.8116 20.3285C43.8982 20.5954 44.0139 20.852 44.1569 21.0937C44.2394 21.2273 44.2797 21.3823 44.2727 21.5389C44.2657 21.6955 44.2117 21.8464 44.1176 21.9721C43.9894 22.149 41.533 22.5707 41.1732 22.4843C40.981 22.435 40.6357 21.8219 40.1146 20.6329C39.9533 20.2626 39.9451 20.2236 40.0422 20.1598ZM41.3904 3.33468C41.9755 2.77514 41.9424 2.7916 43.1375 2.66406C43.6999 2.60852 43.6834 2.59206 44.068 3.35114C44.2265 3.66458 44.404 3.96821 44.5993 4.26038C44.7165 4.41156 44.8074 4.58123 44.8681 4.76231C44.8681 4.88163 44.8516 4.88163 43.7206 5.07294C43.2947 5.14494 42.7571 5.25602 42.5338 5.31156L42.1306 5.4247L41.4896 4.77671C41.1443 4.427 40.8569 4.07524 40.8569 3.99501C40.9934 3.74661 41.1742 3.52495 41.3904 3.34085V3.33468ZM41.4607 22.9554C41.5681 22.9238 41.6794 22.9072 41.7915 22.906C41.9031 22.906 42.4118 22.8258 42.9142 22.7312C43.6751 22.5872 43.8447 22.579 43.9005 22.6674C43.9198 22.7027 43.93 22.7424 43.93 22.7826C43.93 22.8229 43.9198 22.8625 43.9005 22.8978C43.7888 23.122 43.2802 24.6793 43.0982 25.3807C42.9949 25.7551 42.9059 26.1069 42.8915 26.1542C42.8274 26.3867 42.6351 26.1316 42.3373 25.4445C42.1616 25.0454 41.8638 24.3913 41.6798 23.9922C41.3014 23.2084 41.2684 23.0397 41.4607 22.9616V22.9554ZM42.4697 5.78675C42.6516 5.64687 43.0197 5.61601 43.2512 5.56459C43.7864 5.4479 44.331 5.37905 44.8785 5.35887C44.9926 5.34586 45.1081 5.36288 45.2134 5.40825C45.3227 5.47895 45.4089 5.57973 45.4616 5.6983C45.8255 6.34423 46.1701 7.00045 46.4954 7.66695C46.525 7.71418 46.5374 7.7701 46.5305 7.82535C46.5078 7.91998 46.3879 7.94878 46.2907 7.96112L43.8095 8.24294C43.7375 8.26047 43.6623 8.26047 43.5903 8.24294C43.5039 8.19322 43.4364 8.1166 43.398 8.02489L42.42 6.23109C42.3125 6.01921 42.3539 5.88344 42.4697 5.79293V5.78675ZM43.1106 16.5475C43.3401 16.5208 43.6151 16.5475 43.7764 16.529C44.3374 16.4906 44.8985 16.457 45.4595 16.4282C45.508 16.4189 45.5578 16.4189 45.6063 16.4282C45.6608 16.452 45.7064 16.4922 45.7368 16.5431C45.7672 16.594 45.7809 16.6531 45.7758 16.7121C45.7625 16.8291 45.7259 16.9424 45.6683 17.0453C45.1783 18.1232 45.0191 19.3081 44.6469 20.4416C44.6324 20.4869 44.6097 20.5383 44.5621 20.5506C44.5415 20.5528 44.5207 20.5498 44.5015 20.5419C44.4824 20.534 44.4656 20.5214 44.4525 20.5054C44.3745 20.4275 44.3259 20.3251 44.315 20.2157C44.3041 20.1062 44.3315 19.9964 44.3926 19.9047C44.465 19.8039 44.5807 19.7155 44.5745 19.592C44.5648 19.5437 44.5419 19.499 44.5083 19.4627C44.4748 19.4264 44.4319 19.4 44.3843 19.3863C44.2892 19.3534 44.1879 19.3472 44.0928 19.3143C43.8136 19.2176 43.6627 18.9276 43.5386 18.6622L42.7674 17.0165C42.6165 16.6936 42.8294 16.5866 43.1106 16.5537V16.5475ZM43.1623 2.03458C43.2347 2.09835 43.0011 2.24029 42.9142 2.17652C42.8729 2.1539 42.8977 2.09835 42.97 2.05721C43.0424 2.01607 43.1313 2.00784 43.1623 2.04076V2.03458ZM44.0059 1.41745C44.5306 1.11429 45.0848 0.864792 45.6601 0.672776C45.6929 0.661648 45.7285 0.661648 45.7614 0.672776C45.7894 0.689986 45.8117 0.715029 45.8255 0.744775L46.3052 1.59848C46.3138 1.60938 46.3202 1.62196 46.3237 1.63541C46.3273 1.64886 46.328 1.6629 46.3258 1.67665C46.3155 1.70956 46.2762 1.72396 46.2431 1.73219C45.5013 1.93084 44.7369 2.03385 43.9687 2.0387C43.8675 2.05145 43.7652 2.02654 43.6813 1.96876C43.5138 1.81242 43.6958 1.61288 44.0059 1.41539V1.41745ZM44.3161 2.53858C44.4732 2.40486 44.8578 2.40486 45.0563 2.36989C45.5236 2.28967 45.995 2.22384 46.4685 2.17652C46.5645 2.15853 46.6635 2.16562 46.7559 2.1971C46.8498 2.25184 46.9265 2.33165 46.9771 2.42749C47.4332 3.13943 47.8341 3.88489 48.1764 4.6574C47.3355 4.77123 46.4906 4.84871 45.6414 4.88985C45.5799 4.89908 45.5169 4.89125 45.4595 4.86723C45.402 4.82944 45.3567 4.77584 45.3292 4.71294L44.2954 2.8492C44.2148 2.69903 44.2478 2.60029 44.3161 2.53652V2.53858ZM46.1087 5.39796C46.2644 5.33199 46.4287 5.28835 46.5967 5.26836C47.0599 5.18137 47.5319 5.1496 48.0027 5.17374C48.1327 5.17102 48.2614 5.20072 48.377 5.26013C48.4939 5.34112 48.5839 5.45501 48.6354 5.58721C48.9373 6.23726 48.898 6.99634 48.7409 7.69575C48.5837 8.39517 48.3273 9.06785 48.1785 9.77138C47.9074 9.50407 47.7046 9.17607 47.5871 8.81482C47.55 8.72289 47.5378 8.62285 47.552 8.52477C47.5596 8.47599 47.5824 8.43084 47.6173 8.39575C47.6522 8.36066 47.6974 8.33742 47.7463 8.32934C47.8001 8.32934 47.8642 8.34374 47.9055 8.30877C47.9469 8.2738 47.9303 8.18535 47.8869 8.13803C47.7649 8.00638 47.5561 8.01461 47.3886 7.94878C47.1636 7.8332 46.9844 7.64548 46.88 7.41599C46.576 6.90377 46.2907 6.38743 46.026 5.84641C45.902 5.60161 45.9681 5.47407 46.1087 5.39796ZM46.6443 0.530836C46.9441 0.397124 47.6057 0.50615 47.8166 0.602835C48.2086 0.802409 48.5671 1.06125 48.8794 1.37014C48.9407 1.41205 48.9931 1.46561 49.0336 1.52775C49.074 1.58988 49.1017 1.65936 49.1151 1.73219C48.6372 1.74695 48.1589 1.73596 47.6822 1.69927C47.5085 1.69552 47.3369 1.66068 47.1756 1.59642C46.9258 1.44937 46.7223 1.23557 46.5884 0.979286C46.4313 0.740661 46.4871 0.602835 46.6443 0.530836ZM48.1206 2.17652C48.5083 2.18472 48.8942 2.23228 49.2722 2.31847C49.3155 2.32843 49.355 2.35057 49.386 2.38224C49.4019 2.40875 49.4124 2.4381 49.417 2.46863C49.556 3.29739 49.4769 4.14785 49.1875 4.93717C48.4927 4.23364 48.0048 3.35731 47.5333 2.49538C47.3824 2.24441 47.7091 2.17035 48.1206 2.17241V2.17652Z" fill="#59CEC7"/>
<path d="M11.0806 43.1025C11.0806 43.1025 11.0806 43.121 11.0806 43.1293C11.108 43.2186 11.1538 43.3013 11.215 43.3721C11.2762 43.4429 11.3516 43.5003 11.4362 43.5407C11.5194 43.5642 11.6072 43.5659 11.6913 43.5457C11.7753 43.5255 11.8527 43.4841 11.9159 43.4255C12.044 43.3064 12.1412 43.1581 12.1992 42.9935C12.3444 42.6234 12.4031 42.2252 12.3708 41.8292C12.3674 41.6933 12.332 41.5601 12.2674 41.4404C11.8539 40.7512 11.0703 41.2635 10.9627 41.8518C10.8883 42.2717 10.929 42.7037 11.0806 43.1025ZM11.4941 41.6625C11.581 41.5453 11.7009 41.533 11.8084 41.8004C11.9371 42.1377 11.9259 42.5121 11.7774 42.8413C11.7526 42.8927 11.7133 42.9503 11.6575 42.9441C11.6016 42.938 11.5727 42.8824 11.5541 42.831C11.4632 42.5812 11.4069 42.3203 11.3866 42.0555C11.377 41.9143 11.4164 41.7741 11.4983 41.6584L11.4941 41.6625Z" fill="#59CEC7"/>
<path d="M11.8105 39.6591C11.8642 39.7979 11.9434 39.9256 12.0441 40.0355C12.0787 40.0803 12.1253 40.1146 12.1785 40.1343C12.3005 40.1733 12.4225 40.0767 12.5093 39.982C13.0655 39.3937 13.4088 38.6408 13.843 37.9578C14.2705 37.2882 14.7904 36.6816 15.3875 36.1558C15.5148 36.0588 15.6193 35.9352 15.6935 35.7937C15.7292 35.7234 15.7396 35.643 15.7231 35.5659C15.7065 35.4888 15.664 35.4197 15.6026 35.37C15.5392 35.3352 15.4681 35.3168 15.3958 35.3165C13.8761 35.2178 12.4266 36.7688 11.9159 38.0648C11.7092 38.5729 11.6203 39.1756 11.8105 39.6591ZM12.4308 38.1286C12.5719 37.7325 12.7819 37.3642 13.0511 37.0404C13.4253 36.5919 14.3351 35.7711 14.9781 35.9192C14.2242 36.5822 13.5978 37.3761 13.1296 38.2623C12.9657 38.6289 12.7574 38.9743 12.5093 39.2908C12.4838 39.3246 12.4484 39.3498 12.408 39.3628C12.2881 39.3875 12.2343 39.2188 12.2385 39.0975C12.2512 38.7668 12.3146 38.4401 12.4266 38.1286H12.4308Z" fill="#59CEC7"/>
<path d="M18.8157 41.9199H18.8364C19.0219 41.9855 19.2189 42.0128 19.4153 42.0001H20.5815C20.7203 41.985 20.8602 42.0169 20.9785 42.0906C21.0334 42.1416 21.0782 42.2023 21.1108 42.2696C21.276 42.6048 21.5115 42.9008 21.8014 43.1377C21.9487 43.2531 22.1276 43.3215 22.3147 43.334C22.5017 43.3465 22.6882 43.3024 22.8497 43.2077C22.9652 43.109 23.0578 42.9865 23.121 42.8486C23.1841 42.7108 23.2165 42.561 23.2157 42.4095C23.2343 42.1071 23.1888 41.8047 23.2157 41.5023C23.217 41.4281 23.2416 41.3562 23.286 41.2966C23.3593 41.2342 23.4521 41.1993 23.5486 41.1979C24.1201 41.138 24.6614 40.9127 25.1055 40.5499C25.4136 40.2742 25.639 39.8073 25.4219 39.4555C25.2523 39.1798 24.8925 39.0975 24.5679 39.0831C24.1168 39.0619 23.6656 39.1226 23.2364 39.2621C23.0765 39.3407 22.8928 39.3568 22.7215 39.3074C22.5976 39.2299 22.5025 39.1144 22.4506 38.9782C22.2813 38.5902 22.0194 38.2492 21.6877 37.9846C21.5276 37.8678 21.338 37.7974 21.14 37.7814C20.9421 37.7653 20.7435 37.8042 20.5665 37.8938C20.3895 37.9833 20.2409 38.12 20.1373 38.2886C20.0337 38.4572 19.9792 38.6511 19.9798 38.8486C19.9989 39.2202 20.048 39.5896 20.1266 39.9533C20.1501 40.066 20.1408 40.1831 20.0997 40.2907C20.0129 40.4758 19.7875 40.5355 19.5931 40.6034C19.2874 40.7091 19.0061 40.8749 18.7661 41.0909C18.6388 41.1844 18.5523 41.3227 18.5242 41.4776C18.5246 41.5715 18.5523 41.6632 18.6041 41.7417C18.6558 41.8202 18.7293 41.8821 18.8157 41.9199Z" fill="#59CEC7"/>
<path d="M29.5674 43.584C29.708 44.016 29.9375 44.4809 30.3738 44.6023C30.899 44.7484 31.4965 44.3225 31.9824 44.5694C32.3422 44.7525 32.4477 45.2133 32.7268 45.5074C32.8296 45.616 32.9577 45.6978 33.0998 45.7455C33.2418 45.7932 33.3935 45.8054 33.5415 45.781C33.6889 45.753 33.8247 45.6821 33.9318 45.5774C34.0388 45.4727 34.1124 45.3389 34.1431 45.1927C34.2093 44.8265 33.9695 44.4521 34.0542 44.088C34.1493 43.6766 34.6001 43.4709 34.9971 43.3248C35.3941 43.1788 35.8428 42.969 35.9337 42.5575C36.0247 42.1461 35.6546 41.7224 35.2369 41.5948C34.8193 41.4673 34.3706 41.5434 33.9343 41.5804C33.8408 41.5957 33.745 41.5879 33.6552 41.5578C33.4629 41.4776 33.4133 41.2389 33.3347 41.0476C33.1279 40.5519 32.4435 40.1075 31.8873 40.2988C31.296 40.5045 31.1037 41.5825 31.1285 42.1276C31.1398 42.2044 31.1291 42.2829 31.0975 42.3539C31.0549 42.41 30.9977 42.4534 30.9321 42.4794L29.7349 43.0636C29.6854 43.0764 29.6398 43.1007 29.6017 43.1347C29.5636 43.1686 29.5342 43.2111 29.516 43.2586C29.4978 43.3061 29.4913 43.3573 29.497 43.4078C29.5027 43.4583 29.5205 43.5068 29.5488 43.5491C29.5537 43.5614 29.5599 43.5731 29.5674 43.584Z" fill="#59CEC7"/>
<path d="M39.0395 48.6134C39.056 48.63 39.074 48.6452 39.0932 48.6586C39.1416 48.6844 39.1955 48.6978 39.2504 48.6978C39.3052 48.6978 39.3592 48.6844 39.4075 48.6586C39.5024 48.6041 39.5842 48.5297 39.6474 48.4406C39.8776 48.1328 40.0411 47.7808 40.1276 47.4068C40.2141 47.0329 40.2217 46.6452 40.1498 46.2682C40.1376 46.135 40.0833 46.0089 39.9947 45.9082C39.5419 45.4763 39.1077 46.7188 39.0415 46.9862C38.9493 47.3971 38.9125 47.8184 38.9319 48.239C38.9242 48.3723 38.9621 48.5042 39.0395 48.6134ZM39.5998 47.0458C39.6042 47.0405 39.6099 47.0362 39.6163 47.0335C39.7218 47.3318 39.4385 47.6177 39.4881 47.844C39.4385 47.6218 39.424 47.2022 39.5998 47.0458Z" fill="#59CEC7"/>
<path d="M40.6357 42.7221C40.6502 42.7529 40.6626 42.7817 40.675 42.8126C40.9998 43.5623 41.1733 44.3682 41.1857 45.1844C41.1698 45.4327 41.2007 45.6818 41.2767 45.9188C41.3169 46.0364 41.3951 46.1375 41.4991 46.2063C41.603 46.2751 41.7269 46.3078 41.8515 46.2994C42.143 46.248 42.2795 45.9168 42.3477 45.6308C42.5379 44.84 42.5751 44.0204 42.4573 43.2158C42.4145 42.7622 42.235 42.332 41.9424 41.9815C41.5517 41.5701 40.402 41.3932 40.4951 42.251C40.5174 42.4143 40.5648 42.5732 40.6357 42.7221ZM41.3118 42.2201C41.4524 42.1893 41.6178 42.3724 41.684 42.4814C41.9172 42.87 42.0395 43.3145 42.0375 43.7671C42.0375 44.2238 41.9032 44.6784 41.959 45.1289C41.9817 45.3099 42.0107 45.5403 41.8535 45.6288C41.8403 45.6381 41.8242 45.6425 41.808 45.6411C41.7688 45.6411 41.7563 45.5835 41.7543 45.5424C41.7133 44.6558 41.5654 43.7773 41.3139 42.9257C41.2767 42.7982 41.1174 42.395 41.225 42.2736C41.2469 42.2464 41.2776 42.2275 41.3118 42.2201Z" fill="#59CEC7"/>
<path d="M40.9706 51.0162C40.9977 51.0719 41.031 51.1244 41.0699 51.1726C41.1282 51.2522 41.2109 51.3107 41.3056 51.3392C41.3897 51.3491 41.4749 51.3377 41.5533 51.306C41.6317 51.2744 41.7009 51.2235 41.7543 51.1582C42.0484 50.8174 42.2283 50.3939 42.2691 49.9466C42.356 49.3335 42.3823 48.7134 42.3477 48.0952C42.3616 47.8618 42.2976 47.6304 42.1657 47.4369C41.8721 47.0975 41.3387 47.4369 41.2394 47.7804C41.2056 47.9371 41.1924 48.0976 41.2002 48.2577C41.1939 48.6582 41.144 49.0569 41.0513 49.4467C40.9655 49.7343 40.9012 50.0279 40.859 50.3251C40.8317 50.5613 40.8703 50.8004 40.9706 51.0162ZM41.3842 49.5763C41.4565 49.1484 41.5723 48.6938 41.7832 48.5004C41.8272 48.6021 41.8457 48.713 41.837 48.8234C41.8289 49.3461 41.7749 49.8672 41.6757 50.3806C41.6488 50.5143 41.5806 50.683 41.4421 50.6748C41.4027 50.668 41.3661 50.6501 41.3367 50.623C41.3073 50.596 41.2865 50.5611 41.2767 50.5225C41.2601 50.4445 41.2601 50.364 41.2767 50.286C41.3159 50.1152 41.3532 49.854 41.3924 49.5763H41.3842Z" fill="#59CEC7"/>
<path d="M0.899474 56.3646C0.968833 56.4839 1.05756 56.5909 1.16207 56.6814C1.39757 56.8748 1.66864 57.0208 1.96018 57.1113C2.84646 57.3979 3.77693 57.5254 4.70809 57.4878C5.81429 57.4672 6.96597 57.282 7.86126 56.6402C8.1163 56.4755 8.3175 56.2403 8.44021 55.9634C8.52813 55.6709 8.52813 55.3591 8.44021 55.0665C8.38824 54.7927 8.25752 54.5397 8.06389 54.3383C7.88286 54.1889 7.67113 54.0808 7.4436 54.0215C5.48967 53.3715 2.11525 53.1843 0.930489 55.2887C0.818166 55.4712 0.755464 55.6796 0.748535 55.8935C0.757332 56.0608 0.809316 56.2231 0.899474 56.3646ZM1.53838 55.2599L1.58387 55.2044C2.56807 54.0688 4.2346 54.0009 5.60752 54.1758C6.22782 54.2601 6.88533 54.3815 7.39397 54.76C7.53798 54.853 7.6587 54.9775 7.74686 55.1241C7.83503 55.2706 7.88831 55.4353 7.90262 55.6055C7.89772 55.7358 7.86624 55.8637 7.81007 55.9814C7.75391 56.0992 7.67424 56.2044 7.57593 56.2905C7.37865 56.4612 7.15063 56.5931 6.90394 56.6793C6.2569 56.9181 5.57558 57.0521 4.88591 57.0763C3.85208 57.1298 2.76863 57.0064 1.87954 56.4757C1.62315 56.3234 1.36676 56.1033 1.33782 55.8071C1.33361 55.6062 1.40516 55.411 1.53838 55.2599Z" fill="#59CEC7"/>
<path d="M2.48127 56.1775C3.3311 56.4182 4.23372 56.4017 5.07411 56.1302C5.17268 56.1083 5.2613 56.0548 5.32636 55.9779C5.35852 55.9158 5.37425 55.8466 5.37208 55.7768C5.36991 55.707 5.34991 55.6389 5.31396 55.5789C5.21694 55.3973 5.07848 55.241 4.9097 55.1224C4.74093 55.0038 4.54654 54.9262 4.34216 54.8959C3.9663 54.8439 3.58332 54.8871 3.22874 55.0216C2.87415 55.1561 2.55944 55.3775 2.31379 55.6653C2.21868 55.7784 2.13597 55.9491 2.23109 56.0623C2.27685 56.1081 2.33507 56.1395 2.39857 56.1528L2.48127 56.1775ZM3.34969 55.4266C3.77478 55.3408 4.21617 55.3882 4.61302 55.5624C4.65267 55.5759 4.68728 55.601 4.71227 55.6344C4.72552 55.6647 4.7276 55.6986 4.71814 55.7302C4.70868 55.7618 4.68829 55.7891 4.66058 55.8072C4.60325 55.8405 4.53871 55.8595 4.47242 55.8627C3.96713 55.9183 3.45701 55.9142 2.9527 55.8504C2.92168 55.8504 2.8824 55.8381 2.86999 55.8072C2.86704 55.793 2.86757 55.7783 2.87153 55.7643C2.87549 55.7504 2.88276 55.7376 2.89273 55.727C3.00507 55.5758 3.16777 55.4694 3.35175 55.4266H3.34969Z" fill="#59CEC7"/>
</g>
<defs>
<clipPath id="clip0_39_171">
<rect width="50" height="59" fill="white"/>
</clipPath>
</defs>
</svg>
