<svg width="90" height="118" viewBox="0 0 90 118" fill="none" xmlns="http://www.w3.org/2000/svg">
<g clip-path="url(#clip0_49_51)">
<path d="M0.510757 74.6358C0.815184 75.3445 1.31135 75.9543 1.94342 76.3964C4.07227 77.8452 6.94029 76.8023 9.28148 75.7271C11.8744 86.4519 14.5722 97.1499 17.3748 107.821C18.1812 110.936 19.0817 114.162 21.1541 116.627C21.9604 117.586 23.4012 118.436 24.3796 117.656C25.0489 117.119 25.0758 116.135 25.0462 115.283L24.4817 99.2142L28.3093 98.4374C29.7017 104.197 31.3458 109.887 33.2417 115.508C33.3792 116.051 33.6426 116.554 34.0104 116.976C35.056 118.008 36.9672 117.326 37.7117 116.051C38.4563 114.777 38.338 113.208 38.2224 111.751C37.0317 96.4692 37.1621 81.1134 38.6122 65.8543C41.7194 68.9911 47.1007 69.5314 50.7697 67.072C54.0839 64.8517 56.4627 60.4193 60.4463 60.5698C63.1987 60.672 65.3786 63.0669 68.0961 63.5051C70.147 63.8357 72.1791 63.0159 74.1628 62.3976C76.1465 61.7794 78.4258 61.3843 80.1999 62.4621C81.9739 63.54 82.4147 66.6526 80.5358 67.5343C81.8403 68.5949 83.3918 69.3083 85.0461 69.6082C86.7004 69.908 88.4036 69.7845 89.9974 69.2492C88.3846 59.5431 80.7159 51.4067 71.4775 48.0145C62.2391 44.6223 51.7347 45.6384 42.7167 49.5493C42.0532 43.3789 43.7321 37.1843 47.4205 32.1934C49.5709 29.2984 52.49 26.632 52.9496 23.0544C55.7531 23.0705 57.4842 19.8289 57.5487 17.0334C57.6132 14.238 56.6885 11.421 57.1455 8.65514C57.3874 7.17677 58.0191 5.77636 58.1723 4.28725C58.3255 2.79814 57.8282 1.06173 56.4708 0.438131C55.1994 -0.150526 53.6861 0.438132 52.5599 1.27139C49.1032 3.82761 47.7216 8.83523 49.3532 12.8107C46.7033 9.16016 43.2917 6.12911 39.3546 3.92735C35.4175 1.7256 31.049 0.405734 26.5514 0.0591331C24.385 -0.094079 22.1244 -1.40014e-06 20.1595 0.954214C18.1947 1.90843 16.6276 3.87868 16.6867 6.06128C16.4179 5.42156 15.5094 5.28716 14.8993 5.61778C14.2891 5.94839 13.9182 6.58005 13.5768 7.18215L6.56129 19.5466C6.94029 18.8747 3.51855 16.348 2.92721 18.4043C2.33586 20.4605 2.27673 22.8474 2.17996 24.9548C1.96762 29.4974 2.31974 34.0453 2.71755 38.5664C3.49974 47.4366 4.5991 56.6723 1.84128 65.3329C1.75796 65.5855 0.209709 69.5905 0.0323057 71.4398C-0.0819434 72.5285 0.0827064 73.6283 0.510757 74.6358ZM0.916635 71.9344C1.52411 68.7546 3.12074 63.333 4.24161 60.301C4.37331 59.9409 5.60439 67.666 6.26293 69.44C6.32804 69.6893 6.47708 69.9086 6.68494 70.0609C6.96717 70.2249 7.31929 70.1227 7.63646 70.0609C8.88098 69.7921 11.921 69.4857 12.5661 69.1954C13.2295 68.9465 13.928 68.8041 14.6358 68.7734C17.8346 68.4396 20.9853 67.7443 24.0275 66.701C24.4145 66.5693 24.9844 66.5209 25.1026 66.916C25.194 67.2601 24.7989 67.5155 24.471 67.6525C23.0571 68.2457 21.6639 68.8863 20.2912 69.5744C16.4502 71.4936 12.765 73.7864 8.66057 75.0712C6.92147 75.6088 5.07218 75.9744 3.2847 75.6599C2.37081 75.5013 1.40315 75.1008 0.999961 74.2702C0.655906 73.5714 0.784926 72.7435 0.932763 71.9774L0.916635 71.9344ZM3.82229 34.556C3.77928 33.1072 3.75509 31.6585 3.7309 30.215C6.3355 30.1129 8.48585 28.2528 10.8647 27.1911C15.5901 25.0784 21.646 26.4385 25.0193 30.3736C26.9277 32.5992 27.976 35.4269 29.4947 37.9267C29.6641 38.1955 29.8898 38.51 30.2178 38.5261C30.4247 38.5159 30.6235 38.4428 30.7876 38.3165C34.0777 36.2161 36.5219 33.0229 37.6902 29.2985C37.8972 28.6318 37.9106 27.6857 37.2387 27.4868C36.9496 27.4423 36.6539 27.4913 36.3946 27.6266C34.5507 28.3523 28.1723 30.9381 26.5514 32.0778C28.3631 31.9246 35.2845 28.5405 37.0344 28.0459C36.5102 31.0859 35.2066 34.2657 32.7337 36.1097C32.3009 36.4322 30.8037 37.9482 30.3145 37.7224C30.0457 37.5961 29.777 36.9752 29.6049 36.7225C28.2878 34.6125 27.4546 32.2202 25.9735 30.2177C24.9333 28.8213 23.615 27.6556 22.1018 26.7941C20.5885 25.9327 18.9131 25.3943 17.1813 25.2128C15.7218 25.0703 14.2461 25.1859 12.7892 25.0166C11.3324 24.8472 9.8325 24.3473 8.88904 23.2264C5.88662 19.6676 9.77874 14.1681 12.3833 11.6683C12.7543 11.3135 13.2059 10.9533 13.7273 11.0098C14.2488 11.0662 14.6251 11.5474 14.9396 11.9855C15.7758 13.1314 16.7209 14.1936 17.7619 15.1572C18.0307 15.3992 18.3828 15.6545 18.7107 15.5094C19.0387 15.3642 19.0844 14.8884 19.0118 14.5148C18.6355 12.7435 16.6787 11.3699 16.9932 9.58516C17.2324 8.217 18.8317 7.43482 20.2187 7.60953C21.6056 7.78425 22.7722 8.6847 23.8205 9.59054C24.8688 10.4964 25.9036 11.5017 27.2073 11.9882C28.6857 12.5419 30.328 12.3725 31.8843 12.1064C33.4406 11.8403 35.0184 11.4909 36.5828 11.7033C38.1472 11.9156 39.7331 12.8483 40.1981 14.3562C40.4884 15.297 40.311 16.3184 40.4669 17.2915C40.5583 17.8452 40.7625 18.3881 40.7518 18.9499C40.7357 19.7563 40.2895 20.4767 39.983 21.2212C39.4617 22.4907 39.327 23.8859 39.596 25.2316C39.6362 25.5877 39.7964 25.9195 40.0502 26.1724C40.8808 26.8686 42.05 25.6886 43.1333 25.7262C44.0122 25.7558 44.6654 26.6428 44.7595 27.5164C44.8536 28.3899 44.5337 29.2528 44.2219 30.078C42.4634 34.9506 41.228 39.9964 40.5367 45.1304C40.2975 46.9098 39.9992 48.9203 38.5316 49.9686C37.7252 50.5304 36.7279 50.6917 35.763 50.8261C29.7452 51.6673 23.6835 52.1565 17.6087 52.291C15.8535 52.3286 7.04781 51.3395 6.34626 50.6191C6.10366 50.3268 5.93331 49.9815 5.84899 49.6111C4.37869 44.7406 3.97819 39.6497 3.82229 34.556ZM2.94065 20.1407C3.05085 19.0144 3.36534 17.9688 4.23892 18.3021C4.58897 18.4816 4.87661 18.7627 5.06411 19.1085C6.76285 21.6556 8.66495 24.0611 10.7518 26.3014C9.01748 27.5995 7.11956 28.6633 5.10712 29.4651C4.63673 29.6559 4.06689 29.8199 3.64757 29.5323C3.2847 29.2823 3.19331 28.7958 3.13687 28.3577C2.88749 26.3628 2.79761 24.3512 2.86807 22.3421C2.89495 22.0115 2.85195 21.0492 2.94065 20.1407ZM4.38675 52.5302C4.80338 52.2614 5.87049 52.6861 6.17423 52.799C8.10751 53.4556 10.1128 53.8771 12.1468 54.0543C15.5497 54.4064 18.9822 54.3231 22.3986 54.1914C28.5593 53.9387 34.7631 53.471 40.698 51.8126C40.2572 52.3286 39.561 52.5302 38.9025 52.6969C32.1396 54.393 25.143 54.9628 18.1758 55.1859C13.8536 55.3203 9.40781 55.3096 5.37591 53.7586C5.0668 53.6404 4.05883 53.1807 4.25236 52.6835C4.2816 52.6206 4.32824 52.5674 4.38675 52.5302ZM5.04261 54.2962C5.97532 54.2048 7.39455 54.7478 7.93482 54.9091C12.8752 56.4035 18.1624 56.21 23.2964 55.6644C28.4303 55.1187 33.5535 54.2371 38.7143 54.3957C37.7664 63.6475 37.0989 72.9325 36.7118 82.2507C36.6715 83.1861 36.5882 84.229 35.8893 84.8526C35.3517 85.3391 34.5453 85.4332 33.825 85.5031L20.009 86.8202C18.4957 86.968 16.8829 87.089 15.5255 86.4089C14.1251 85.6993 13.2677 84.2586 12.6038 82.8313C11.7328 80.9655 11.0667 79.0107 10.6174 77.0012C10.4588 76.2969 10.3325 75.5147 11.155 74.9691C11.583 74.6911 12.0935 74.5687 12.6011 74.6223C17.5737 75.0578 20.9337 79.6058 25.4574 81.4981C26.4359 81.9066 27.5298 82.1889 28.5486 81.8986C29.5673 81.6083 30.371 80.7589 31.051 79.9203C33.7539 76.5837 35.7296 72.7192 36.8516 68.5745C36.8792 68.4757 36.8778 68.371 36.8478 68.2729C36.8178 68.1748 36.7604 68.0873 36.6823 68.0208C36.2817 67.7197 35.8759 68.346 35.7657 68.8272C34.9006 72.7139 33.0765 76.3223 30.4597 79.3235C29.7689 80.1111 28.9356 80.9014 27.8927 80.9927C27.218 81.0546 26.5487 80.81 25.9332 80.5492C22.157 78.959 18.7744 76.5617 16.0228 73.5257C18.7645 71.0528 18.4957 71.0528 19.3021 71.5904C20.7294 72.5419 24.0436 74.1815 25.3069 74.6815C25.4955 74.7607 25.6948 74.8115 25.8983 74.832C27.2557 74.9476 27.6696 73.488 27.9115 72.3376C28.1916 71.0124 28.5957 69.7165 29.1184 68.467C29.2573 68.1368 29.3062 67.7757 29.2601 67.4205C29.214 67.0652 29.0746 66.7286 28.8561 66.4447C28.6375 66.1609 28.3477 65.9401 28.016 65.8047C27.6844 65.6694 27.3228 65.6244 26.9681 65.6742C23.6861 66.1849 20.1676 66.0263 17.0604 67.2332C16.0524 67.6257 15.0014 68.1686 13.9477 67.924C12.9989 67.7036 12.3162 66.8945 11.4748 66.4027C10.3056 65.7172 7.88107 65.8651 6.68225 66.4833C6.63655 66.5075 5.19582 59.0485 5.02111 58.3684C4.84639 57.6884 4.69049 57.0245 4.53997 56.3605C4.44589 55.9466 4.06689 55.0623 4.32224 54.6645C4.40696 54.5529 4.51571 54.4619 4.64042 54.3982C4.76513 54.3344 4.90259 54.2996 5.04261 54.2962ZM7.24134 68.3595C7.52792 67.7323 7.9748 67.1918 8.53692 66.7924C8.97919 66.4675 9.52537 66.3164 10.0717 66.3677C10.6869 66.4921 11.2447 66.8139 11.6603 67.2843C11.9274 67.5236 12.1322 67.8244 12.257 68.1606C12.2888 68.2433 12.3017 68.3321 12.2947 68.4205C12.2878 68.5089 12.2611 68.5945 12.2167 68.6713C12.0966 68.8018 11.9313 68.8816 11.7544 68.8944C10.3674 69.1417 8.91054 68.7412 7.54507 69.0906C7.37842 69.1336 7.15532 69.1632 7.08006 69.0099C7.04452 68.9239 7.04452 68.8272 7.08006 68.7412C7.12581 68.6081 7.17967 68.4779 7.24134 68.3514V68.3595ZM15.1627 90.973C15.2863 90.9408 15.4583 90.9999 15.7003 91.1854C15.9086 91.3781 16.0807 91.6066 16.2083 91.8601C16.9904 93.1317 17.9704 94.2704 19.1112 95.2334C20.4337 96.3838 21.9416 97.3838 22.8555 98.889C23.7049 100.276 23.9576 101.956 23.9307 103.585C23.9038 105.214 23.8743 106.794 23.8743 108.423C23.8743 110.305 24.4118 114.337 24.143 115.949C24.0113 116.729 22.7991 116.799 22.5303 116.487C20.3799 113.947 19.1059 110.24 18.0979 107.079C16.6322 102.466 15.5832 97.7305 14.9638 92.9299C14.8993 92.5132 14.6815 91.0806 15.1627 90.965V90.973ZM20.6971 71.0178C20.6192 69.8835 23.7184 69.3513 24.4145 69.2115C24.6876 69.1267 24.9801 69.1267 25.2532 69.2115C25.4597 69.3436 25.6455 69.5058 25.8042 69.6927C26.2396 70.0744 26.8659 70.2303 27.2154 70.6818C27.3507 70.8826 27.4396 71.1111 27.4754 71.3506C27.5112 71.5901 27.4931 71.8345 27.4223 72.0661C27.2774 72.5267 27.0635 72.9626 26.788 73.359C26.5998 73.6601 26.3794 73.988 26.0354 74.0767C25.8068 74.1183 25.5713 74.0988 25.3526 74.0203C23.7829 73.5818 22.3334 72.7923 21.1138 71.7113C20.9595 71.5881 20.8323 71.4344 20.7401 71.2597C20.7118 71.1822 20.6972 71.1004 20.6971 71.0178ZM26.4789 67.6337C26.7282 67.3296 27.0155 67.0586 27.3336 66.8273C27.4196 66.7497 27.5297 66.7041 27.6454 66.6983C27.704 66.7064 27.7595 66.7295 27.8066 66.7652C27.8537 66.801 27.8907 66.8483 27.9142 66.9026C27.9624 67.0118 27.9872 67.13 27.9868 67.2494C28.023 67.9084 27.9318 68.5683 27.718 69.1927C27.7015 69.2615 27.6616 69.3223 27.6051 69.3648C27.5529 69.3882 27.4949 69.3957 27.4385 69.3863C27.003 69.3594 26.5192 69.2599 26.2692 68.9051C25.9843 68.4912 26.1617 68.0315 26.4681 67.6337H26.4789ZM29.8979 96.5962C30.0654 95.3145 30.446 94.0698 31.0242 92.9137C31.7305 91.6355 32.8497 90.6348 34.1986 90.0753C34.4196 89.9795 34.6601 89.9375 34.9004 89.9527C35.1408 89.9678 35.3741 90.0397 35.5813 90.1625C35.7885 90.2852 35.9636 90.4553 36.0924 90.6588C36.2212 90.8623 36.2999 91.0934 36.3221 91.3332C36.7656 95.8704 36.9914 96.6365 36.7763 102.233C36.7333 103.327 37.7279 113.253 37.5827 114.328C37.5018 114.728 37.3163 115.099 37.0451 115.404C36.9779 115.495 36.9107 115.589 36.8382 115.672C36.7157 115.832 36.5538 115.956 36.3684 116.033C36.183 116.11 35.9806 116.138 35.7813 116.112C35.5821 116.087 35.3929 116.01 35.2327 115.889C35.0724 115.768 34.9467 115.607 34.8679 115.422C33.8169 112.952 32.2149 109.119 31.5859 107.294C30.7527 104.888 30.0162 102.424 29.8146 99.8862C29.7197 98.7901 29.7441 97.687 29.8872 96.5962H29.8979ZM32.2015 112.869C32.2291 112.87 32.2553 112.881 32.2748 112.9C32.2944 112.92 32.3056 112.946 32.3063 112.974M38.6041 12.5768C38.6874 12.472 38.7627 12.4317 38.7627 12.4935C38.7627 12.5553 38.5208 12.6924 38.6041 12.5768ZM43.1736 50.81C43.5741 50.1326 45.2406 49.8369 45.8158 49.7348C49.5521 49.001 53.0733 47.3157 56.8364 46.8076C61.6746 46.1518 66.5613 47.4662 71.155 49.1166C68.6041 50.7481 65.2765 50.439 62.4434 51.5115C60.4301 52.2722 58.7233 53.7102 56.6966 54.4387C54.6699 55.1671 52.3771 55.1322 50.2456 54.651C48.114 54.1699 46.1169 53.2614 44.1681 52.291C43.8672 52.1654 43.5934 51.9829 43.3618 51.7534C43.0419 51.3664 43.007 51.0707 43.1655 50.8019L43.1736 50.81ZM43.4209 51.8556C43.4424 51.8556 43.4639 51.9281 43.4639 52.0115C43.4639 52.0948 43.3913 51.8556 43.4128 51.8556H43.4209ZM50.4982 14.367C50.4982 14.1573 50.5762 14.0149 50.767 14.1546C50.8452 14.221 50.9038 14.3074 50.9364 14.4046C51.7674 16.3155 52.4338 18.2938 52.9281 20.3181C53.0197 20.5719 53.0245 20.8489 52.9416 21.1056C52.929 21.1433 52.9075 21.1774 52.8789 21.205C52.8504 21.2326 52.8156 21.2529 52.7776 21.2642C52.6432 21.2911 52.5437 21.146 52.4873 21.0196C51.8072 19.4821 51.5734 17.7941 50.974 16.2109C50.8099 15.823 50.6698 15.4253 50.5547 15.0202C50.5104 14.8054 50.4915 14.5862 50.4982 14.367ZM86.5676 68.3944L86.5407 68.3756C86.1375 68.0826 85.9735 67.5692 85.858 67.08C85.7101 66.4725 84.9279 61.0053 86.2369 61.5939C86.4468 61.7172 86.6102 61.9061 86.702 62.1315C87.6882 63.9533 88.3478 65.9338 88.6507 67.9832C88.6717 68.0345 88.6802 68.0901 88.6755 68.1453C88.6708 68.2006 88.653 68.2539 88.6236 68.3009C88.5942 68.3479 88.554 68.3873 88.5063 68.4157C88.4587 68.4441 88.405 68.4608 88.3497 68.4643C87.7583 68.6363 87.0702 68.7438 86.5676 68.3971V68.3944Z" fill="#FF1E00"/>
<path d="M11.0904 17.5495C11.1822 18.1912 11.4804 18.7856 11.9398 19.2429C12.8752 20.1192 14.4557 20.0815 15.4717 19.302C15.9701 18.8766 16.3991 18.376 16.7431 17.8183L17.528 16.684C17.5846 16.6202 17.6161 16.5381 17.6167 16.4528C17.5979 16.3265 17.4554 16.262 17.3291 16.2378C16.6759 16.1115 16.0201 16.4125 15.3561 16.4206C14.1976 16.4206 13.2058 15.5766 12.5042 14.6627C12.3767 14.4634 12.1999 14.3004 11.9909 14.1896C11.0904 13.8294 11.0205 16.4259 11.0205 16.934C11.0278 17.1406 11.0511 17.3465 11.0904 17.5495ZM12.265 16.055C12.3376 16.0228 12.429 16.055 12.5338 16.2028C12.6241 16.3591 12.6644 16.5391 12.6494 16.7189C12.6709 17.2807 12.851 17.9204 13.3644 18.1543C13.824 18.3639 14.3616 18.1543 14.7971 17.9043C15.2325 17.6543 15.6599 17.3264 16.1625 17.2834C15.8192 17.9918 15.2433 18.5611 14.5309 18.8962C13.8079 19.1918 12.8832 19.0762 12.3806 18.4822C12.0502 18.038 11.9038 17.4834 11.972 16.934C11.9801 16.7888 12.0527 16.1491 12.265 16.055Z" fill="#FF1E00"/>
<path d="M13.5364 30.8091C13.5364 31.0241 13.6466 31.2123 13.9718 31.2257C14.2695 31.1912 14.5578 31.0999 14.8212 30.9569C15.5873 30.6881 16.434 30.922 17.1705 31.2983C17.907 31.6746 18.5521 32.1772 19.3208 32.4675C19.4266 32.5165 19.5436 32.536 19.6595 32.524C19.7173 32.5174 19.7711 32.4911 19.8117 32.4494C19.8523 32.4078 19.8774 32.3534 19.8826 32.2955C19.868 32.2017 19.818 32.117 19.7428 32.059C18.4709 30.8163 16.7835 30.0894 15.0067 30.0188C14.5745 29.9688 14.1391 30.0798 13.7837 30.3306C13.6418 30.4516 13.553 30.6234 13.5364 30.8091Z" fill="#FF1E00"/>
<path d="M26.4815 20.3019C26.5083 20.7401 26.5836 21.232 26.5917 21.3932C26.6239 22.1324 26.6642 22.9012 27.0217 23.5436C27.5593 24.5086 28.7286 25.0166 29.8199 24.8876C30.3654 24.8083 30.8894 24.6198 31.3604 24.3335C31.8315 24.0472 32.24 23.6688 32.5616 23.221C32.9352 22.7265 33.2551 22.1459 33.8249 21.8959C34.1313 21.7669 34.5748 21.6271 34.4942 21.2938C34.4135 20.9605 33.9566 21.025 33.6717 21.1433C32.6679 21.5322 31.5889 21.6884 30.516 21.6002C29.4386 21.5103 28.4315 21.0283 27.6857 20.2455C27.5056 20.0439 26.9303 19.3155 26.5809 19.5466C26.4707 19.6219 26.46 19.9418 26.4815 20.3019ZM27.8254 22.584C28.3254 22.8877 28.7071 23.4361 29.414 23.3527C29.8494 23.3017 30.2204 23.0114 30.5779 22.7722C30.9354 22.5329 31.3842 22.3313 31.8089 22.4792C31.8621 22.4953 31.9096 22.526 31.946 22.5679C31.9737 22.6248 31.9839 22.6886 31.9752 22.7513C31.9666 22.8139 31.9396 22.8727 31.8976 22.92C31.5668 23.3621 31.102 23.6855 30.5725 23.8419C29.9567 24.1023 29.2693 24.1394 28.6291 23.9468C28.0781 23.7398 27.5217 23.1189 27.6668 22.5007C27.721 22.524 27.7739 22.55 27.8254 22.5786V22.584Z" fill="#FF1E00"/>
<path d="M27.0164 18.4285C27.0265 18.4491 27.0381 18.4688 27.0514 18.4876C27.1971 18.6391 27.3951 18.7294 27.6051 18.7403C29.9312 19.152 32.2989 19.2775 34.6555 19.1139C35.4216 19.0601 36.2683 18.9284 36.744 18.3075C37.0639 17.8882 37.3757 16.4582 37.4375 16.2002C37.5306 15.9502 37.5502 15.6787 37.494 15.418C37.1956 14.6116 33.368 16.4501 32.696 16.6302C31.1915 17.0367 29.6559 17.3181 28.105 17.4716C27.8059 17.4745 27.5125 17.5541 27.253 17.7027C27.1357 17.7777 27.0481 17.891 27.005 18.0233C26.9619 18.1556 26.9659 18.2988 27.0164 18.4285Z" fill="#FF1E00"/>
<path d="M41.9935 17.1759C42.0473 17.2081 42.0983 17.1759 42.0983 17.1356C42.0985 17.1067 42.0878 17.0788 42.0684 17.0574C42.049 17.036 42.0223 17.0227 41.9935 17.02C41.9317 17.02 41.8914 17.0415 41.8914 17.063C41.8986 17.0884 41.9115 17.1118 41.9293 17.1313C41.947 17.1509 41.9689 17.1662 41.9935 17.1759Z" fill="#FF1E00"/>
<path d="M44.2783 52.4281C44.3073 52.4426 44.3408 52.4454 44.3718 52.4359C44.4029 52.4264 44.429 52.4053 44.445 52.377C44.4772 52.326 44.445 52.2722 44.3509 52.2722C44.1654 52.2722 44.1331 52.3367 44.2783 52.4281Z" fill="#FF1E00"/>
<path d="M44.5927 52.627C44.6653 52.67 44.7486 52.6808 44.7782 52.6485C44.8723 52.5544 44.7379 52.4496 44.5927 52.5034C44.4476 52.5571 44.4771 52.5652 44.5927 52.627Z" fill="#FF1E00"/>
</g>
<defs>
<clipPath id="clip0_49_51">
<rect width="90" height="117.96" fill="white"/>
</clipPath>
</defs>
</svg>
