<svg width="450" height="450" viewBox="0 0 450 450" fill="none" xmlns="http://www.w3.org/2000/svg">
<g clip-path="url(#clip0_193_9)">
<rect width="450" height="450" rx="225" fill="#151515"/>
<g clip-path="url(#clip1_193_9)">
<path d="M408.1 135.5C408.1 134.9 408 134.2 407.9 133.5C406.2 125.9 395.6 125.3 388 127.2C367.6 132.4 348.6 143.2 333.8 158.2C330.8 150.1 320.9 144.3 321.9 135.7C322.2 133.4 323.2 131.3 323.4 129C323.7 124.7 320.1 120.5 315.8 120.1C311.5 119.7 307.2 123.1 306.7 127.4C306.2 130.9 308.1 134.3 309.8 137.4C314.2 145.2 318.6 153 323 160.9C318.3 163.9 313.5 166.9 308.8 169.9C309.4 169.5 291.5 151.3 289.8 149.8C282.7 143.6 274.9 138.2 266.7 133.6C250.3 124.3 232.1 118.1 213.4 115.6C195.9 113.2 175.1 112.5 159 120.3C141 129 126.5 142.1 116 159.2C113.8 162.7 111.9 166.4 110.1 170.1C99.4001 192.8 95.7001 218.2 95.3001 243.3C75.1001 247.5 56.6001 259.4 44.5001 276.2C43.3001 277.8 42.1001 281.5 42.1001 283.5C42.1001 287.8 47.3001 288 51.5001 288.8C71.6001 292.6 93.1001 288.7 110.6 278C130.6 306.1 161 327.2 194.8 333.9C228.6 340.6 265.6 332.2 291.9 309.9C318.2 287.6 332.5 251.2 326.3 217.2C325.3 211.5 323.7 205.8 324.6 200.1C325.5 194.4 329.6 188.7 335.4 188.3C340.6 188 345.1 192 347.6 196.5C350.1 201 351.5 206.1 354.3 210.5C349 210.4 346.4 218.4 350 222.2C353.7 226 360.6 224.9 364 220.8C367.4 216.7 367.5 210.7 365.7 205.7C363.9 200.7 360.3 196.6 356.8 192.7C353.2 188.8 349.5 184.9 347.1 180.2C369.7 176.2 390.6 163.1 404.2 144.6C406.1 142 408.1 138.8 408.1 135.5ZM396.3 144.8C396 145.4 395.7 146 395.2 146.4C395.1 146.5 394.9 146.7 394.7 146.7C394.3 146.7 394.2 146.3 394.1 146C393.5 143.5 393.2 141 393.2 138.5C393.2 137.8 393.4 136 394.4 137.1C395.6 138.4 396.4 140 396.7 141.7C396.8 142.7 396.7 143.8 396.3 144.8ZM390.2 150.1C390.2 150.1 390.1 150.2 390.2 150.1C389.3 149.4 389 148.1 388.9 146.9C388.5 143.4 388.5 139.9 388.5 136.4C388.5 135.5 388.4 133.7 389.2 133.2C389.4 133.4 389.4 133.6 389.5 133.9C389.9 138.8 390.2 143.7 390.6 148.7C390.6 149.2 390.6 149.8 390.2 150.1ZM380 164.2C379.4 164.7 378.7 165.1 378.1 165.5C377.8 165.7 377.4 165.9 377.1 165.7C376.9 165.6 376.8 165.4 376.7 165.1C376 163.2 375.8 161.2 375.6 159.2C374.9 152.5 374.4 145.8 375 139.2C375.2 137.1 375.7 135.2 377.6 134.1C378.2 138 378 142.1 378.1 146.1C378.2 150.1 378.6 154.2 380.5 157.7C380.8 158.3 381.2 158.9 381.8 159C382.6 159.1 383.2 158.5 383.7 157.9C384.7 156.8 385.7 155.6 386.7 154.5C387.4 155.1 388 155.7 388.7 156.3C386.1 159.3 383.2 161.9 380 164.2ZM384.6 153.5C384.2 154 383.7 154.4 383 154.6C382.2 150.4 381.7 146.1 381.8 141.7C381.8 139.7 381.9 137.6 382.4 135.6C382.5 135.1 382.9 133.1 383.4 132.8C384.2 132.4 384.5 133.6 384.5 134.3C384.7 138.7 384.7 143.2 385.2 147.6C385.4 148.9 385.6 150.3 385.3 151.6C385.3 152.3 385.1 152.9 384.6 153.5ZM371.3 161.8C368.7 156.4 369.2 150 368.2 144.1C368.1 143.7 368 143.2 367.5 143.1C367.3 143.1 367.1 143.2 366.9 143.3C366.2 143.8 365.6 144.4 365.1 145.1C364.9 144.2 365 143.2 365.4 142.4C365.5 142.1 365.8 141.8 366.1 141.8C366.4 141.8 366.6 142.1 366.9 142.3C367.6 142.8 368.7 142.2 369 141.4C369.3 140.6 369.2 139.7 369.2 138.8C369.2 138.2 369.3 136.2 370.4 136.4C371.2 136.6 371.2 138.4 371.1 139C370.8 146.9 371 154.8 371.6 162.6C371.5 162.4 371.4 162.1 371.3 161.8ZM369.7 170.3C369.5 170.5 369.3 170.6 369 170.6C368.5 170.6 368.1 170.4 367.8 170.1C367.2 169.5 366.9 168.6 366.6 167.7C365.5 163.8 364.8 159.9 364.5 155.9C364.4 154 364.1 151.8 364.4 149.9C364.8 147.4 366.1 149.2 366.3 150.8C367 156.4 368.2 162 369.9 167.4C370.1 168 370.3 168.7 370.2 169.3C370.2 169.6 370 170 369.7 170.3ZM361.2 172.8C360.1 173.1 359 173.4 357.9 173.5C357.6 173.5 357.3 173.6 357.1 173.5C356.8 173.4 356.6 173.1 356.4 172.8C354 169.1 353.5 164.5 353.4 160.1C353.3 156.5 353.4 152.9 353.7 149.3C353.7 148.8 354.5 144.9 355.6 146C355.8 146.2 355.8 146.6 355.8 147C355.7 154.2 356.2 161.5 357.4 168.6C357.6 169.6 358 170.9 359 171.1C359.9 171.3 360.8 170.5 361 169.7C361.3 168.8 361.1 167.9 360.9 167C359.7 161.1 359.3 155 359.5 148.9C359.5 147.9 359.6 146.9 360.3 146.1C360.9 147.8 360.8 149.6 360.7 151.4C360.6 157.4 361.5 163.5 363.3 169.3C363.6 170.2 363.8 171.2 363.2 171.9C362.9 172.2 362.6 172.3 362.2 172.5C361.9 172.6 361.6 172.7 361.2 172.8ZM362.8 216.4C362.7 216.6 362.6 216.8 362.5 216.9C362 217.7 361.3 218.2 360.6 218.8C359.2 219.8 357.6 220.5 356 221C355.5 221.2 354.9 221.3 354.4 221.2C353.3 221 352.6 219.9 352.1 218.9C351.5 217.7 351 216.1 351.9 215.1C352.9 213.9 354.9 214.5 356.4 213.8C357.6 213.3 358.2 211.9 358.3 210.6C358.3 209.3 357.9 208 357.4 206.8C353.1 196.4 344.8 188 339.3 178.2C337.2 174.4 335.5 170.4 332.8 167C332.2 166.2 330.6 164.4 331.3 163.4C333.7 164.3 335.8 168.4 337.1 170.5C341.2 177.1 344.9 184.1 349.7 190.2C352.5 193.8 355.8 197.1 358.4 200.8C361 204.5 363.1 208.9 363.3 213.5C363.2 214.5 363.1 215.5 362.8 216.4ZM350.5 172.3C350.1 171.4 349.7 170.5 349.5 169.5C349.3 168.8 349.2 167.7 349.8 167.3C351.4 168.5 351.7 172.3 351.6 174.2C351.2 173.5 350.8 172.9 350.5 172.3ZM349.6 166.1C349.3 165.7 349.1 165.1 349 164.6C348 161 347.7 157.2 347.5 153.4C347.5 152.9 348.1 147.8 349.4 149C349.6 149.2 349.6 149.4 349.6 149.7C349.9 155.3 350.1 160.9 350.1 166.6C349.9 166.4 349.8 166.3 349.6 166.1ZM346.6 176.7C346.1 176.8 345.6 176.3 345.2 175.9C342.8 173 340.6 170.1 338.4 167.1C338 166.6 337.7 166.1 337.7 165.5C337.7 164.9 338.1 164.3 338.5 163.8C338.9 163.3 339.3 162.7 339.1 162C338.9 161.3 338 161 337.6 161.5C337.2 162 337.7 162.7 337.4 163.3C337.1 163.9 336 163.7 335.7 163.1C335.4 162.5 335.7 161.7 336.2 161.2C336.8 160.5 337.9 158.9 339.1 159.6C339.5 159.8 339.8 160.2 340.1 160.7C343.1 165.2 345.4 170.1 347 175.2C347.2 175.8 347.3 176.5 346.8 176.8C346.8 176.7 346.7 176.7 346.6 176.7ZM344 159.2C343.7 158.8 343.4 158.4 343.1 158C342.9 157.8 342.8 157.5 342.7 157.3C342.6 156.7 343.7 154.5 344.5 155.1C344.7 155.2 344.8 155.5 344.8 155.7C345.2 157.3 345.4 159 345.4 160.7C344.9 160.2 344.4 159.7 344 159.2ZM329.2 161.4C329 161.3 328.9 161.2 328.9 161.1C323.1 152.9 317.8 144.3 312.8 135.6C311.7 133.7 310.6 131.8 310.4 129.6C310 125.7 313.7 122.4 317.5 123.2C318.2 123.3 318.8 123.6 319.3 124.1C320 125 319.9 126.3 319.6 127.4C319.2 128.9 318.5 130.3 317.7 131.5C317.1 132.4 316.4 133.3 316.3 134.4C316.3 135.2 316.6 135.9 316.9 136.6C320.6 144.7 326.4 151.7 329.7 159.9C329.8 160.2 329.9 160.5 329.9 160.7C329.7 161.3 329.5 161.5 329.2 161.4ZM325.2 190.4C324.4 191.1 323.6 191.9 322.7 192.6C322.1 193.1 321.5 193.5 320.7 193.5C320 193.5 319.4 193 318.8 192.9C317.7 192.7 316.7 193.6 315.9 194.4C315.6 194.7 315.3 195 315.3 195.5C315.3 195.9 315.7 196.2 315.8 196.5C316.1 197.3 315.3 198.1 314.5 198.6C311.1 200.8 307.4 202.6 303.6 204.1C303.2 204.3 302.7 204.4 302.3 204.2C302 204 301.9 203.7 301.8 203.4C300.5 200.5 299.3 197.5 298 194.6C297.9 194.4 297.8 194.1 297.9 193.8C298 193.6 298.2 193.4 298.4 193.3C303.7 189.4 321.5 180.4 323.3 178.6C325.1 180.8 326.6 183.3 327.8 185.9C328 186.3 328.2 186.8 328.1 187.2C328 187.6 327.8 187.9 327.5 188.2C326.7 188.9 326 189.6 325.2 190.4ZM323 237.4C322.9 240.1 322.6 242.8 322.1 245.5C321.6 248.7 320.2 252.4 317 252.9C319.5 257.1 317.7 262.5 315.6 266.9C298.2 303.8 259.5 331 218.7 330C195.8 329.5 173.8 320.6 154.7 308C132 293 112.3 271.4 106.2 244.9C101.7 225.3 105 204.6 111 185.4C115 172.5 120.3 159.9 128.3 149C152.9 115.4 200.3 113.5 236.7 126.7C261.2 135.6 282.8 152.6 297.3 174.3C291.7 177.1 284.9 177.5 279.1 175.2C291.2 187.2 299.6 203.2 301.1 220.1C303.4 216.6 304.1 212.3 306 208.6C307.9 204.9 311.9 201.5 315.9 202.8C321.1 213.6 323.6 225.6 323 237.4ZM319.7 176.5C313.9 179.3 308.4 182.6 303.2 186.3C301.2 187.7 299.2 189.2 296.9 190.2C296.6 190.3 296.4 190.4 296.1 190.3C295.9 190.2 295.7 190 295.6 189.8C294.5 188.4 293.6 187 292.6 185.5C292.2 184.8 291.7 184.1 291.7 183.2C291.6 181.3 294.4 180.6 295.7 180C297.7 179 299.8 178.1 301.8 177.1C302.7 176.7 303.8 176.3 304.6 176.8C305 177 305.3 177.5 305.7 177.6C306.6 177.8 307.2 176.7 307.7 175.9C309 173.5 311.7 172.2 314.2 171.2C314.8 170.9 315.5 170.7 316.1 170.8C316.6 170.9 317 171.3 317.4 171.6C318.4 172.5 319.5 173.5 320.4 174.5C320.6 174.7 320.8 174.9 320.8 175.1C320.9 175.8 320.3 176.2 319.7 176.5ZM104.7 277.2C91.6001 284.6 76.3001 288.1 61.2001 287.1C57.1001 286.8 53.0001 286.2 49.3001 284.5C47.4001 283.6 46.6001 281.5 47.4001 279.6C50.8001 271 57.8001 264.1 65.7001 259.2C70.4001 256.3 75.4001 254 80.6001 252.1C83.2001 251.1 85.8001 250.2 88.4001 249.4C89.7001 249 95.6001 247.4 96.9001 247.8C98.5001 248.2 105.1 270.6 108 274.4C108.3 274.8 108.2 275.3 107.8 275.6C106.9 275.9 105.6 276.7 104.7 277.2Z" fill="#F1EFED"/>
<path d="M264.8 159.4C256.6 153.1 244.3 153.6 234.5 157.6C223.7 162 214.8 169.9 204.8 175.8C192 183.5 177.4 188 162.5 189.3C155.8 189.9 148.9 189.8 142.5 187.8C136.1 185.8 130.1 181.7 126.8 175.8C125.5 173.4 124.6 170 122.6 168.1C119.8 165.6 117.7 167.7 119 171.2C119.6 172.8 120.8 174.2 121.4 175.8C122.5 178.8 121.5 182.2 120.7 185.3C115.1 205.6 116.5 227.9 125.3 247.1C134.1 266.3 150.7 281.9 170.5 288.9C190.4 295.9 213.4 293.8 231.3 282.7C248.7 271.8 260.6 252.7 263.3 232.3C266 211.9 259.7 190.7 246.9 174.6C246.1 173.6 245.3 172.5 245.5 171.3C245.6 170.4 246.3 169.7 247 169.2C251.8 165 258.6 163.2 264.8 164.5C266 164.7 267.6 164.9 268 163.7C268.3 162.9 267.7 162.1 267.1 161.4C266.4 160.7 265.6 160 264.8 159.4ZM259.4 229C257.6 242.2 251.2 254.4 243 264.9C236.1 273.7 227.6 281.6 217.2 285.8C207.2 289.8 196 290.1 185.4 288.2C165.1 284.6 146.3 272.6 134.6 255.5C126.8 244.2 122.3 230.7 121.3 217.1C120.8 210.2 121.2 203.2 122.5 196.3C123.1 193 123.8 189.3 125.2 186.2C127.2 182 130 184 129.8 188.3C129.7 190.4 128.8 192.4 128.2 194.5C125.4 203.7 127.3 213.5 129.7 222.8C132 232 135 241.2 141 248.5C147.7 256.5 157.7 261.5 168 263.1C178.3 264.8 189 263.3 199 260.3C209.5 257.1 219.8 252 226.8 243.5C235.2 233.4 238.1 219.4 236 206.4C233.9 193.4 227.1 181.5 218.3 171.8C220.9 169.1 224 166.8 227.3 165C228.4 164.4 229.7 163.8 230.9 164C232.1 164.2 233.1 165 234 165.8C241.5 172.6 247.6 180.7 252.1 189.8C257.9 201.5 260.9 214.7 259.4 227.6C259.5 228.1 259.4 228.6 259.4 229ZM168 210.5C167.4 210.9 166.5 211.1 165.7 211C164.3 210.9 162.8 210.5 161.4 210.7C160 210.9 158.5 211.9 158.4 213.3C158.3 214.7 159.7 215.9 159.8 217.3C159.9 218.9 158.5 220.1 157.3 221.1C156.8 221.4 156.4 221.8 155.8 221.9C154.7 222 153.9 221 153.3 220.2C152 218.3 150.6 216.2 150.4 213.9C150.2 211.6 151.5 209 153.8 208.5C154.6 208.3 155.4 208.5 156.2 208.2C157 207.9 157.6 207 157.2 206.3C157 206 156.7 205.9 156.4 205.7C155.4 205 154.9 203.7 155.2 202.6C156.1 198.8 162.3 199.7 165 200.3C165.9 200.5 166.7 200.8 167.4 201.4C167.9 201.9 168.2 202.7 168.4 203.5C168.8 205.1 169 206.7 169 208.3C169 208.9 168.9 209.5 168.6 210C168.5 210.1 168.3 210.3 168 210.5Z" fill="#F1EFED"/>
<path d="M97.6001 261.3C93.9001 261.1 73.7001 267.4 71.3001 268.2C69.7001 268.8 68.1001 269.4 66.8001 270.5C66.3001 271 65.8001 271.5 65.8001 272.2C65.7001 272.9 66.1001 273.6 66.8001 273.8C67.3001 273.9 67.7001 273.6 68.2001 273.4C73.5001 270.5 79.3001 268.3 85.2001 267C89.3001 266.1 93.5001 265.5 97.0001 263.3C97.6001 262.9 98.3001 262.3 98.2001 261.6C98.2001 261.4 98.0001 261.3 97.6001 261.3Z" fill="#F1EFED"/>
</g>
</g>
<defs>
<clipPath id="clip0_193_9">
<rect width="450" height="450" fill="white"/>
</clipPath>
<clipPath id="clip1_193_9">
<rect width="366.1" height="222.3" fill="white" transform="translate(42 114)"/>
</clipPath>
</defs>
</svg>
